<svg width="220" height="16" viewBox="0 0 220 16" fill="none" xmlns="http://www.w3.org/2000/svg">
<path d="M206.847 7.67321C206.546 7.68697 206.242 7.69692 205.947 7.71677C205.755 7.72921 205.673 7.69596 205.545 7.67901C205.502 7.6731 205.457 7.66108 205.417 7.66281C205.119 7.67655 204.821 7.69183 204.523 7.7071C204.432 7.7374 204.374 7.77748 204.234 7.79272C204.097 7.80718 203.936 7.808 203.784 7.81565C203.583 7.82508 203.382 7.83451 203.182 7.84317C203.081 7.8475 202.999 7.86245 202.966 7.89017C202.96 7.89479 203.027 7.90592 203.063 7.91263C203.185 7.93497 203.304 7.96039 203.438 7.97731C203.566 7.9935 203.724 7.96516 203.861 7.9859C204.169 8.03256 204.172 8.03178 204.406 8.02142C204.607 8.01199 204.808 8.0018 205.008 7.99467C205.048 7.99294 205.094 8.00419 205.136 8.01009C205.264 8.02628 205.347 8.06413 205.535 8.04865C205.678 8.03645 205.836 8.03336 205.986 8.02648C206.11 8.04805 206.226 8.07271 206.36 8.08964C206.485 8.10585 206.522 8.11867 206.455 8.1412C206.394 8.16217 206.309 8.17101 206.196 8.17311C206.096 8.17438 205.996 8.18177 205.895 8.1861C205.844 8.18865 205.795 8.19043 205.746 8.19297C205.555 8.20236 205.555 8.20235 205.204 8.15514C205.067 8.1367 204.912 8.16426 204.781 8.14656C204.693 8.13476 204.617 8.11678 204.531 8.1042C204.495 8.09903 204.437 8.09855 204.391 8.10031C204.239 8.10643 204.087 8.11102 203.941 8.1217C203.838 8.12911 203.777 8.15084 203.789 8.17221C203.793 8.18061 203.866 8.19249 203.908 8.19304C204.006 8.19408 204.109 8.18284 204.203 8.18772C204.295 8.19262 204.389 8.20745 204.456 8.22395C204.593 8.25846 204.748 8.22631 204.879 8.23483C205.016 8.24409 205.129 8.27413 205.26 8.29184C205.293 8.29626 205.357 8.28828 205.409 8.28573C205.558 8.27962 205.707 8.27428 205.856 8.26817C205.981 8.28974 206.115 8.30896 206.228 8.33364C206.432 8.37853 206.651 8.39502 206.916 8.3715C207.065 8.3585 207.211 8.36236 207.33 8.39161C207.452 8.4216 207.592 8.41784 207.747 8.41094C207.89 8.4041 208.036 8.38653 208.182 8.40722C208.499 8.45307 208.502 8.45535 208.876 8.4351C208.989 8.42918 209.074 8.42722 209.159 8.44439C209.238 8.46006 209.324 8.4734 209.406 8.48829C209.555 8.48219 209.707 8.47607 209.856 8.4692C210.048 8.45982 210.154 8.46999 210.2 8.51261C210.228 8.53849 210.24 8.56215 210.307 8.57941C210.387 8.60044 210.472 8.59924 210.587 8.59254C210.697 8.58663 210.776 8.57782 210.821 8.55004C210.84 8.53847 210.876 8.52758 210.909 8.51823C210.937 8.5112 210.979 8.50028 211.004 8.50168C211.049 8.50452 211.11 8.51262 211.125 8.52249C211.275 8.61433 211.275 8.6151 211.428 8.64111C211.595 8.67011 211.769 8.69602 211.921 8.72892C212.058 8.75807 212.195 8.74438 212.344 8.74363C212.457 8.74307 212.53 8.76259 212.521 8.78253C212.515 8.79404 212.472 8.81108 212.436 8.8128C212.138 8.8296 211.837 8.84413 211.536 8.85635C211.499 8.85807 211.453 8.84452 211.411 8.83785C211.325 8.82451 211.249 8.80346 211.158 8.79933C211.066 8.7952 210.96 8.80721 210.86 8.81154C210.759 8.81588 210.653 8.82637 210.562 8.8207C210.47 8.81504 210.397 8.79322 210.312 8.77911C210.272 8.77242 210.217 8.76275 210.184 8.76521C209.962 8.7847 209.797 8.76027 209.639 8.7274C209.605 8.72068 209.547 8.71638 209.505 8.71812C209.152 8.73291 208.802 8.74997 208.449 8.76628C208.306 8.77312 208.19 8.74692 208.16 8.70193C208.144 8.67676 208.114 8.65166 208.114 8.62641C208.113 8.5805 207.946 8.55609 207.824 8.56206C207.623 8.57072 207.419 8.57786 207.222 8.59034C207.061 8.60033 206.924 8.59184 206.814 8.56484C206.686 8.53411 206.54 8.54097 206.394 8.55012C206.284 8.5568 206.254 8.5822 206.26 8.64568C206.267 8.69692 206.215 8.71324 206.018 8.72266C205.768 8.73462 205.516 8.74661 205.263 8.7563C205.224 8.75802 205.178 8.74525 205.138 8.73856C205.053 8.72521 204.977 8.70341 204.885 8.69927C204.794 8.69438 204.688 8.70639 204.587 8.71149C204.487 8.71582 204.38 8.72707 204.289 8.72217C204.198 8.71727 204.122 8.6947 204.039 8.68058C204 8.67389 203.951 8.66418 203.911 8.66591C203.711 8.67304 203.51 8.68324 203.309 8.69267C203.084 8.70298 203.084 8.70298 202.764 8.65715C202.618 8.63646 202.472 8.65403 202.329 8.66087C202.177 8.66776 202.034 8.67154 201.915 8.64153C201.836 8.62203 201.747 8.61023 201.653 8.61453C201.401 8.62498 201.151 8.63772 200.899 8.64817C200.856 8.64992 200.798 8.64638 200.765 8.63966C200.603 8.60834 200.445 8.58388 200.22 8.60108C200.025 8.61583 199.815 8.61765 199.621 8.63164C199.514 8.63906 199.466 8.6638 199.487 8.68282C199.499 8.69271 199.563 8.70386 199.606 8.70365C199.703 8.70392 199.81 8.69191 199.901 8.69604C200.09 8.70427 200.184 8.76807 200.431 8.74923C200.577 8.73778 200.729 8.73319 200.881 8.72937C200.921 8.7284 200.963 8.74273 201.006 8.75017C201.128 8.77021 201.234 8.79645 201.411 8.78179C201.557 8.77035 201.712 8.76651 201.861 8.75964C202.098 8.7485 202.098 8.74926 202.406 8.79439C202.552 8.81585 202.698 8.79752 202.841 8.79144C202.948 8.78708 203.048 8.77892 203.133 8.7892C203.264 8.80461 203.359 8.84086 203.52 8.83775C203.672 8.83469 203.821 8.82323 203.973 8.81864C204.068 8.81587 204.156 8.82767 204.232 8.84795C204.311 8.86821 204.397 8.87696 204.5 8.87185C204.649 8.86498 204.801 8.85656 204.953 8.85197C204.996 8.85099 205.045 8.85764 205.084 8.86356C205.17 8.8769 205.252 8.89256 205.334 8.90668C205.483 8.90134 205.635 8.89905 205.781 8.88913C205.894 8.88168 205.973 8.88434 206.064 8.89919C206.18 8.91926 206.275 8.95552 206.463 8.93697C206.558 8.92808 206.667 8.92982 206.761 8.92169C206.877 8.91117 206.956 8.91459 207.038 8.93713C207.194 8.97997 207.389 8.97975 207.589 8.96191C207.808 8.94244 207.973 8.96305 208.137 8.99589C208.311 9.03021 208.311 9.02944 208.446 9.1137C208.485 9.13799 208.598 9.14891 208.692 9.14384C208.85 9.13539 208.987 9.13853 209.103 9.16702C209.225 9.19778 209.371 9.19322 209.52 9.18405C209.718 9.17158 209.916 9.16064 210.077 9.20421C210.156 9.22524 210.242 9.23016 210.348 9.22427C210.649 9.20898 210.954 9.19904 211.249 9.18072C211.428 9.1691 211.532 9.19307 211.654 9.21311C211.818 9.2406 211.998 9.26494 211.998 9.32539C211.998 9.33534 212.041 9.3466 212.077 9.35407C212.157 9.36974 212.242 9.38308 212.324 9.39798C212.446 9.42032 212.565 9.43885 212.732 9.42577C212.878 9.41508 213.033 9.41124 213.182 9.40361C213.331 9.39597 213.468 9.39145 213.603 9.41986C213.758 9.45198 213.922 9.48253 214.099 9.50613C214.224 9.5231 214.388 9.49243 214.522 9.51548C214.604 9.5296 214.684 9.54603 214.772 9.55783C214.808 9.563 214.866 9.55889 214.915 9.55711C215.015 9.55355 215.119 9.55074 215.216 9.5426C215.329 9.53361 215.414 9.53471 215.499 9.55189C215.578 9.56756 215.658 9.58934 215.749 9.59347C215.886 9.59967 216.038 9.5683 216.175 9.60281C216.245 9.62006 216.334 9.63645 216.425 9.64135C216.516 9.64624 216.623 9.63423 216.72 9.6345C216.763 9.63429 216.814 9.64627 216.839 9.6561C216.854 9.66138 216.833 9.67602 216.812 9.68378C216.784 9.6931 216.745 9.70555 216.705 9.70727C216.404 9.72256 216.103 9.73556 215.802 9.75008C215.622 9.75863 215.622 9.75863 215.26 9.71225C215.175 9.7012 215.08 9.70397 214.974 9.70986C214.831 9.71746 214.685 9.73121 214.536 9.71819C214.341 9.66714 214.1 9.66375 213.845 9.68493C213.738 9.69388 213.641 9.69437 213.562 9.68023C213.394 9.652 213.217 9.62611 213.068 9.59243C212.952 9.56623 212.898 9.56421 212.849 9.60118C212.834 9.61273 212.819 9.62505 212.822 9.63575C212.84 9.67391 212.874 9.71124 212.893 9.74941C212.899 9.76009 212.875 9.77246 212.859 9.78401C212.811 9.81639 212.747 9.81441 212.64 9.78817C212.534 9.76192 212.406 9.74497 212.235 9.75807C212.089 9.76952 211.931 9.76879 211.785 9.781C211.56 9.79897 211.402 9.77528 211.24 9.74318C211.207 9.73647 211.149 9.73293 211.106 9.73468C210.653 9.75456 210.203 9.77671 209.75 9.79659C209.652 9.80091 209.564 9.78988 209.488 9.7696C209.408 9.74934 209.32 9.73907 209.223 9.74339C208.821 9.76148 208.42 9.77804 208.018 9.79995C207.854 9.8092 207.723 9.7999 207.61 9.77368C207.525 9.75422 207.446 9.7485 207.339 9.75133C207.223 9.75421 207.141 9.76227 207.084 9.78476C207.029 9.80646 207.069 9.81926 207.191 9.83548C207.322 9.85319 207.443 9.8763 207.568 9.8971C207.669 9.89353 207.769 9.8869 207.866 9.88717C207.909 9.88696 207.949 9.90054 207.991 9.90797C208.113 9.92955 208.226 9.95118 208.399 9.93806C208.545 9.92662 208.7 9.92354 208.85 9.9159C209.056 9.90644 209.056 9.90645 209.391 9.95297C209.477 9.96478 209.568 9.96355 209.678 9.95611C209.772 9.95028 209.869 9.96051 209.936 9.98312C209.964 9.99217 209.955 10.0075 209.897 10.0583C209.898 10.0958 209.961 10.0787 209.982 10.0541C210.016 10.0187 209.952 10.0075 209.83 10.0273C209.745 10.0415 209.703 10.0616 209.724 10.0776C209.736 10.0859 209.794 10.0963 209.897 10.0583C210.165 10.0111 210.369 10.0047 210.563 9.99145C210.679 9.98398 210.752 9.98667 210.843 10.0061C210.953 10.0293 211.063 10.054 211.242 10.0408C211.437 10.0261 211.644 10.0235 211.842 10.011C212.024 9.9994 212.119 10.0326 212.234 10.0519C212.374 10.0749 212.529 10.0474 212.657 10.0605C212.791 10.0736 212.886 10.1068 213.041 10.1121C213.266 10.0903 213.409 10.1279 213.58 10.1523C213.714 10.1707 213.872 10.1531 214.015 10.144C214.176 10.134 214.31 10.1417 214.423 10.1687C214.551 10.1994 214.694 10.1918 214.84 10.1842C215.181 10.1672 215.193 10.1648 215.391 10.2059C215.534 10.2358 215.671 10.2213 215.814 10.2168C215.939 10.2368 216.061 10.2584 216.192 10.2761C216.225 10.2805 216.289 10.2726 216.341 10.27C216.49 10.2631 216.642 10.2562 216.791 10.2494C216.892 10.245 216.998 10.233 217.089 10.2372C217.181 10.2421 217.257 10.2639 217.339 10.278C217.421 10.2921 217.507 10.3062 217.586 10.3211C217.708 10.3435 217.823 10.362 217.994 10.3497C218.14 10.339 218.292 10.3352 218.444 10.3275C218.636 10.3181 218.63 10.3205 218.986 10.3646C219.178 10.3889 219.375 10.3573 219.57 10.3532C219.667 10.3512 219.762 10.3592 219.829 10.381C219.856 10.3901 219.847 10.4054 219.857 10.4184C219.355 10.4415 218.85 10.4617 218.354 10.4894C218.162 10.5003 218.062 10.4733 217.958 10.4509C217.787 10.415 217.562 10.4697 217.401 10.4231C217.303 10.3952 217.163 10.3799 216.996 10.3945C216.899 10.4026 216.795 10.4024 216.695 10.4098C216.439 10.4279 216.205 10.4298 216.001 10.3781C215.931 10.3601 215.83 10.3506 215.757 10.3334C215.672 10.3147 215.589 10.3044 215.489 10.3087C215.036 10.3294 214.586 10.35 214.135 10.3721C214.096 10.3739 214.056 10.3856 214.023 10.3941C213.938 10.416 213.965 10.4327 214.102 10.4458C214.148 10.4501 214.185 10.4599 214.227 10.4673C214.31 10.4815 214.386 10.504 214.477 10.5089C214.568 10.5138 214.675 10.5026 214.775 10.4983C214.876 10.4939 214.982 10.4819 215.073 10.486C215.165 10.4909 215.241 10.5127 215.326 10.5261C215.366 10.5328 215.415 10.544 215.454 10.543C215.655 10.5374 215.853 10.528 216.054 10.5201C216.178 10.5402 216.285 10.5695 216.434 10.5756C216.529 10.5797 216.629 10.5708 216.726 10.5718C216.769 10.5724 216.824 10.5836 216.845 10.5934C216.857 10.5995 216.818 10.615 216.788 10.6228C216.672 10.6525 216.514 10.6479 216.371 10.6578C216.216 10.6685 216.076 10.6662 215.957 10.6369C215.878 10.6174 215.789 10.6072 215.692 10.6115C215.439 10.6227 215.19 10.6354 214.938 10.6451C214.895 10.6469 214.843 10.6402 214.804 10.6351C214.484 10.59 214.484 10.5885 214.259 10.5996C213.927 10.6158 213.927 10.6158 213.705 10.5763C213.662 10.5689 213.616 10.5546 213.58 10.5555C213.227 10.5696 212.877 10.5836 212.527 10.6029C212.412 10.6089 212.332 10.6093 212.247 10.5898C212.174 10.5733 212.089 10.5546 211.997 10.5505C211.903 10.5464 211.8 10.5584 211.699 10.5627C211.599 10.567 211.492 10.5775 211.404 10.5718C211.313 10.5662 211.233 10.5452 211.154 10.5302C211.072 10.5146 210.984 10.5158 210.871 10.5225C210.524 10.5418 210.521 10.5395 210.177 10.4938C210.138 10.4887 210.086 10.4828 210.043 10.4846C209.791 10.495 209.541 10.5078 209.289 10.5182C209.191 10.5225 209.097 10.513 209.03 10.4912C209.003 10.4821 209.012 10.4668 208.993 10.437C208.972 10.4303 208.996 10.4424 209.002 10.4538C209.048 10.4521 209.103 10.4533 209.136 10.447C209.221 10.4321 209.264 10.4127 209.242 10.3968C209.23 10.3884 209.172 10.378 209.136 10.3782C209.069 10.3785 209.011 10.3956 208.993 10.437C208.802 10.4633 208.598 10.4696 208.4 10.4829C208.284 10.4911 208.211 10.4877 208.12 10.4682C208.01 10.4443 207.897 10.4211 207.718 10.4343C207.523 10.449 207.316 10.4524 207.116 10.4641C206.885 10.4775 206.784 10.4091 206.589 10.4116C206.388 10.4142 206.187 10.4282 205.987 10.4384C205.81 10.4469 205.81 10.4469 205.445 10.399C205.311 10.3813 205.153 10.4089 205.022 10.3905C204.933 10.3787 204.857 10.3607 204.772 10.3481C204.735 10.3429 204.677 10.3432 204.632 10.345C204.379 10.3554 204.124 10.3628 203.88 10.3809C203.604 10.4022 203.394 10.3818 203.195 10.3377C202.946 10.3473 202.693 10.3532 202.447 10.369C202.268 10.3806 202.164 10.3559 202.042 10.3358C201.999 10.3291 201.963 10.3178 201.917 10.315C201.872 10.3122 201.817 10.3186 201.768 10.3211C201.567 10.3305 201.36 10.3354 201.166 10.3502C200.926 10.369 200.834 10.3067 200.648 10.3C200.524 10.3381 200.457 10.3897 200.211 10.3948C200.01 10.3988 199.809 10.4121 199.608 10.4215C199.508 10.4258 199.407 10.4309 199.307 10.4353C199.146 10.443 199.07 10.4732 199.104 10.5189C199.122 10.5441 199.138 10.5693 199.153 10.5944C199.184 10.6394 199.108 10.6781 198.98 10.6841C198.627 10.7004 198.277 10.7175 197.925 10.7322C197.83 10.7365 197.739 10.724 197.663 10.7037C197.583 10.6834 197.495 10.6747 197.398 10.679C197.045 10.6953 196.695 10.7124 196.342 10.7272C196.303 10.7289 196.251 10.7215 196.211 10.7156C196.126 10.7023 196.044 10.6866 195.961 10.6725C195.761 10.6804 195.563 10.686 195.365 10.6961C195.046 10.7115 195.046 10.7123 194.811 10.6714C194.768 10.6639 194.726 10.6496 194.686 10.6506C194.534 10.6544 194.385 10.6628 194.233 10.6705C193.786 10.6926 193.786 10.6926 193.655 10.6703C193.536 10.6495 193.429 10.624 193.25 10.6372C193.055 10.6519 192.848 10.6575 192.647 10.6662C192.498 10.6723 192.349 10.6792 192.2 10.6815C192.161 10.6824 192.118 10.6681 192.075 10.6607C191.953 10.6376 191.835 10.619 191.667 10.6329C191.57 10.641 191.467 10.6431 191.366 10.6474C191.105 10.6594 191.105 10.6594 190.675 10.6157C190.633 10.6113 190.581 10.6062 190.538 10.6087C190.185 10.6243 189.836 10.6413 189.483 10.6561C189.44 10.6578 189.388 10.6535 189.346 10.6499C188.865 10.6079 188.865 10.6079 188.354 10.6319C188.159 10.6406 188.153 10.6437 187.949 10.6041C187.857 10.587 187.781 10.579 187.675 10.5848C187.273 10.6052 186.868 10.6195 186.47 10.6429C186.29 10.653 186.187 10.6306 186.065 10.6105C186.022 10.6039 185.977 10.5888 185.94 10.5898C185.539 10.6063 185.137 10.6259 184.735 10.6425C184.699 10.6442 184.653 10.6291 184.611 10.6225C184.528 10.6091 184.449 10.5888 184.358 10.5847C184.263 10.5806 184.16 10.5926 184.056 10.5969C183.804 10.6082 183.804 10.6074 183.512 10.5637C183.472 10.5578 183.42 10.5496 183.381 10.5514C182.979 10.5687 182.574 10.5837 182.176 10.6079C181.948 10.6213 181.792 10.5999 181.631 10.5686C181.597 10.5619 181.54 10.5591 181.497 10.5608C181.044 10.5807 180.594 10.6029 180.14 10.6228C180.046 10.6271 179.955 10.6145 179.878 10.595C179.756 10.5642 179.614 10.5688 179.461 10.5764C179.112 10.5943 179.108 10.5935 178.901 10.5578C178.859 10.5504 178.822 10.5406 178.776 10.537C178.734 10.5334 178.679 10.536 178.633 10.5377C178.433 10.5464 178.232 10.5558 178.031 10.5653C177.83 10.5747 177.626 10.5803 177.429 10.5943C177.185 10.6116 177.069 10.5624 176.899 10.5403C176.649 10.5515 176.394 10.559 176.147 10.5763C175.959 10.5895 175.87 10.5562 175.746 10.5393C175.703 10.5334 175.657 10.5206 175.618 10.5223C175.164 10.5414 174.711 10.5621 174.261 10.585C174.151 10.5901 174.078 10.5844 173.987 10.5665C173.783 10.5262 173.774 10.5278 173.433 10.5448C173.284 10.5524 173.141 10.5593 173.013 10.5285C172.9 10.5008 172.763 10.4946 172.602 10.5046C172.404 10.517 172.2 10.5242 172 10.5329C171.799 10.5423 171.598 10.5548 171.397 10.5596C171.236 10.5642 171.138 10.5288 171.01 10.5111C170.971 10.5059 170.916 10.5054 170.87 10.5072C170.67 10.5151 170.463 10.5215 170.268 10.5354C170.031 10.5527 169.9 10.5113 169.732 10.4876C169.696 10.4825 169.635 10.4858 169.589 10.4884C169.236 10.5039 168.886 10.521 168.534 10.5373C168.409 10.5173 168.281 10.498 168.156 10.478C167.955 10.4866 167.754 10.4961 167.553 10.5047C167.401 10.5116 167.246 10.5147 167.103 10.5269C166.918 10.5431 166.826 10.5076 166.701 10.4906C166.659 10.4847 166.613 10.472 166.573 10.4737C166.321 10.4834 166.068 10.4938 165.819 10.5081C165.582 10.5223 165.487 10.4539 165.292 10.4556C165.091 10.4574 164.885 10.4684 164.69 10.4832C164.465 10.5004 164.306 10.4767 164.145 10.4446C164.111 10.4379 164.054 10.4343 164.011 10.4361C163.758 10.4465 163.509 10.4593 163.257 10.4697C163.214 10.4715 163.162 10.4679 163.12 10.4635C162.638 10.4208 162.638 10.42 162.429 10.4303C162.28 10.4371 162.127 10.4456 161.975 10.4501C161.933 10.4519 161.881 10.4453 161.841 10.4393C161.524 10.3943 161.524 10.3935 161.296 10.4038C161.096 10.4132 160.895 10.4227 160.694 10.4321C160.569 10.4121 160.441 10.3928 160.316 10.3728C160.067 10.384 159.811 10.3929 159.565 10.4079C159.449 10.4146 159.373 10.4127 159.285 10.394C159.175 10.3716 159.065 10.3454 158.883 10.3593C158.688 10.3741 158.481 10.3767 158.284 10.3891C158.046 10.4041 157.949 10.335 157.757 10.3367C157.556 10.3385 157.349 10.3495 157.155 10.3642C156.929 10.3814 156.771 10.3577 156.61 10.3256C156.576 10.3189 156.518 10.3154 156.476 10.3171C155.922 10.3421 155.371 10.3671 154.818 10.3936C154.477 10.4098 154.477 10.4106 153.829 10.3718C153.783 10.3689 153.734 10.3661 153.688 10.3679C153.488 10.3758 153.281 10.3822 153.086 10.3962C152.849 10.4134 152.718 10.3727 152.55 10.3483C152.514 10.3432 152.456 10.3465 152.407 10.3483C152.255 10.3544 152.106 10.3621 151.954 10.3689C151.753 10.3784 151.552 10.3878 151.352 10.3972C151.227 10.378 151.099 10.3579 150.974 10.3387C150.724 10.3499 150.469 10.3565 150.223 10.3738C150.034 10.387 149.945 10.3553 149.821 10.3376C149.778 10.3317 149.732 10.3189 149.693 10.3199C149.239 10.339 148.786 10.3589 148.336 10.3826C148.15 10.3927 148.065 10.3587 147.94 10.3417C147.897 10.3365 147.849 10.3268 147.809 10.3286C147.508 10.3408 147.207 10.3553 146.906 10.3699C146.735 10.3784 146.735 10.3784 146.364 10.3328C146.321 10.3276 146.272 10.3225 146.23 10.3243C145.275 10.3673 144.322 10.4127 143.367 10.4558C143.27 10.4601 143.182 10.449 143.105 10.4288C143.026 10.4085 142.938 10.3982 142.84 10.4025C142.439 10.4206 142.034 10.4372 141.636 10.4591C141.471 10.4684 141.34 10.4591 141.228 10.4328C141.142 10.4134 141.063 10.4061 140.957 10.4113C140.756 10.4215 140.555 10.4301 140.354 10.4395C140.154 10.449 139.953 10.4584 139.752 10.4678C139.551 10.4773 139.348 10.4829 139.15 10.4969C138.906 10.5142 138.787 10.4673 138.62 10.4444C138.319 10.4574 138.018 10.4704 137.719 10.4842C137.318 10.5023 136.916 10.5219 136.515 10.5392C136.478 10.5409 136.433 10.5274 136.39 10.5207C136.265 10.5022 136.174 10.4759 135.988 10.4852C135.088 10.5303 134.181 10.5693 133.278 10.6136C133.089 10.623 133.007 10.5905 132.879 10.5736C132.836 10.5684 132.787 10.558 132.748 10.5597C132.246 10.5813 131.744 10.6053 131.242 10.6285C131.038 10.6379 131.038 10.6379 130.697 10.5922C130.657 10.587 130.605 10.5804 130.563 10.5821C129.909 10.6115 129.258 10.6423 128.604 10.6724C128.506 10.6767 128.418 10.6664 128.339 10.6461C128.263 10.6259 128.171 10.6148 128.077 10.6191C127.475 10.6467 126.869 10.6734 126.27 10.7032C126.109 10.7117 125.975 10.7055 125.859 10.6785C125.777 10.659 125.695 10.651 125.591 10.6561C124.688 10.6982 123.784 10.7387 122.881 10.783C122.707 10.7916 122.585 10.7776 122.476 10.7529C122.387 10.7335 122.311 10.73 122.202 10.7336C122.086 10.738 122.016 10.7468 121.952 10.7701C121.87 10.8003 121.819 10.8381 121.624 10.8414C121.423 10.8447 121.22 10.8549 121.022 10.8689C120.833 10.8829 120.745 10.8489 120.626 10.8288C120.538 10.8147 120.456 10.8128 120.343 10.8203C120.24 10.8269 120.176 10.8402 120.115 10.865C119.982 10.9177 119.969 10.9178 119.805 10.8857C119.716 10.8686 119.637 10.8552 119.54 10.8587C119.138 10.8761 118.737 10.8949 118.335 10.9145C118.104 10.9257 118.101 10.9272 117.927 10.8898C117.842 10.8711 117.76 10.8623 117.659 10.8674C116.555 10.9189 115.451 10.9689 114.347 11.0226C114.176 11.0311 114.06 11.0156 113.939 10.9933C113.899 10.9858 113.859 10.9753 113.814 10.9725C113.768 10.9697 113.716 10.973 113.668 10.9748C112.865 11.0117 112.058 11.0471 111.258 11.0879C111.076 11.0972 110.978 11.0732 110.853 11.054C110.811 11.0473 110.774 11.0368 110.728 11.0339C110.683 11.0319 110.628 11.0375 110.579 11.04C109.776 11.077 108.97 11.1124 108.17 11.1532C107.978 11.1625 107.896 11.1308 107.771 11.1146C107.728 11.1087 107.683 11.0975 107.643 11.0992C107.391 11.1089 107.141 11.1216 106.889 11.1328C106.286 11.1611 105.684 11.1879 105.082 11.2169C104.851 11.228 104.75 11.1604 104.555 11.1645C104.302 11.1696 104.053 11.1861 103.801 11.1981C103.6 11.2075 103.399 11.2162 103.198 11.2264C103 11.2358 103 11.2358 102.507 11.1939C102.465 11.1903 102.413 11.1852 102.37 11.1869C101.668 11.2188 100.962 11.2506 100.262 11.2848C100.101 11.2925 99.9669 11.2893 99.8511 11.2616C99.7688 11.2421 99.6836 11.2326 99.5832 11.2377C98.5276 11.2866 97.475 11.3355 96.4194 11.3837C96.3798 11.3854 96.3281 11.378 96.2885 11.3721C96.2032 11.3588 96.1209 11.3431 96.0386 11.329C95.9779 11.3469 95.8989 11.3633 95.8595 11.3834C95.8049 11.4105 95.7319 11.4185 95.6163 11.4237C95.5007 11.4289 95.4277 11.4277 95.3363 11.4083C95.2266 11.3843 95.1138 11.3658 94.9343 11.3743C93.8301 11.4281 92.7258 11.4773 91.6215 11.5303C91.439 11.5388 91.3536 11.5056 91.2257 11.4886C91.183 11.4835 91.1342 11.4753 91.0947 11.477C90.6414 11.4969 90.1912 11.5183 89.7379 11.539C88.4816 11.5973 87.2252 11.6534 85.9719 11.7148C85.7437 11.7259 85.5884 11.7075 85.4269 11.6754C85.3934 11.6687 85.3356 11.6652 85.293 11.6669C83.5346 11.7477 81.7763 11.8292 80.021 11.9108C79.9267 11.9151 79.8353 11.9033 79.7591 11.8838C79.6798 11.8635 79.5916 11.854 79.4942 11.8583C78.6911 11.8953 77.888 11.9322 77.0849 11.9699C76.8841 11.9793 76.8811 11.9801 76.6739 11.9444C76.6312 11.937 76.5855 11.9227 76.5521 11.9244C76.4821 11.9286 76.4153 11.948 76.3668 11.9743C76.3183 12.0021 76.2422 12.0101 76.1297 12.016C76.0141 12.022 75.938 12.0201 75.8496 12.0021C75.7369 11.9798 75.6333 11.9581 75.4507 11.9667C73.1418 12.0762 70.8329 12.182 68.5239 12.2907C68.3384 12.2993 68.2529 12.2676 68.125 12.2507C68.0824 12.2455 68.0397 12.2381 67.9941 12.2368C67.9454 12.2355 67.8937 12.2404 67.845 12.2429C64.0789 12.4172 60.3129 12.5922 56.5468 12.7665C56.3217 12.7768 56.3247 12.7768 56.0787 12.8485C56.0483 12.857 56.0088 12.8687 55.9662 12.8704C54.8133 12.9252 53.6573 12.9785 52.5013 13.0317C51.9994 13.0549 51.4974 13.0789 50.9955 13.1013C50.816 13.1091 50.816 13.1091 50.3875 13.1939C50.351 13.2009 50.3085 13.2103 50.2659 13.2121C48.2581 13.3056 46.2503 13.3991 44.2395 13.4911C44.0813 13.498 43.9536 13.5124 43.8808 13.5495C43.8293 13.5758 43.7624 13.5914 43.6621 13.5965C42.2566 13.6618 40.8512 13.7278 39.4427 13.7915C39.2754 13.7992 39.1751 13.8211 39.0931 13.8537C39.0658 13.8645 39.0416 13.8769 39.002 13.8847C38.9656 13.8918 38.9108 13.8944 38.8652 13.8969C37.6605 13.9527 36.4559 14.01 35.2482 14.0636C35.0687 14.0713 34.9958 14.1 34.9078 14.1303C34.8774 14.1404 34.8562 14.1543 34.8167 14.1614C34.7772 14.1677 34.7194 14.168 34.6707 14.1698C33.6668 14.2161 32.663 14.2633 31.6591 14.3096C31.4643 14.3068 31.422 14.3514 31.3278 14.3786C31.2944 14.388 31.2702 14.4004 31.2307 14.4067C31.1881 14.413 31.1333 14.4125 31.0816 14.4143C30.2784 14.4513 29.4754 14.4905 28.6692 14.5252C28.4836 14.533 28.4474 14.5722 28.3471 14.5995C28.3137 14.6081 28.2804 14.6212 28.2408 14.6237C27.7389 14.6485 27.237 14.6716 26.735 14.6941C26.5677 14.7018 26.5677 14.701 26.273 14.7783C26.2396 14.7868 26.2001 14.7962 26.1575 14.7987C25.4061 14.8347 24.6517 14.8691 23.8973 14.9042C23.7999 14.9085 23.7331 14.9272 23.6846 14.9535C23.6361 14.9798 23.5662 14.9969 23.4689 15.0013C22.8665 15.0295 22.2642 15.0586 21.6618 15.0846C21.4945 15.0915 21.3851 15.1112 21.3123 15.146C21.2577 15.1723 21.1909 15.1857 21.0844 15.1908C20.482 15.2183 19.8797 15.2481 19.2743 15.2726C19.0979 15.2796 19.0068 15.3061 18.9339 15.3386C18.8763 15.3649 18.8094 15.3744 18.6968 15.3796C17.5926 15.4295 16.4853 15.4794 15.3841 15.534C15.1985 15.5433 15.104 15.517 14.9821 15.4985C14.8085 15.4726 14.6471 15.4443 14.6467 15.3846C14.6466 15.3754 14.5948 15.365 14.5582 15.3575C14.287 15.3015 14.287 15.3015 14.244 15.2405C14.2194 15.2031 14.1917 15.165 14.1702 15.1269C14.1302 15.0643 14.0327 15.0487 13.7528 15.0616C13.6524 15.066 13.552 15.0718 13.4517 15.0754C13.3026 15.0815 13.1898 15.0568 13.1621 15.011C13.1468 14.9859 13.1284 14.9607 13.113 14.9355C13.2651 14.9286 13.262 14.9279 13.5291 14.834C13.6415 14.7944 13.6415 14.7944 13.4252 14.7564C13.3429 14.7423 13.2637 14.7266 13.1754 14.7133C13.1358 14.7074 13.084 14.7038 13.0414 14.7056C12.7889 14.716 12.5395 14.728 12.29 14.7399C11.8885 14.7588 11.8884 14.7588 11.4802 14.6828C11.4467 14.6768 11.3948 14.6656 11.4009 14.6595C11.4342 14.631 11.5162 14.6183 11.6197 14.6148C11.7718 14.6094 11.9208 14.601 12.0699 14.5941C12.1703 14.5898 12.2707 14.5847 12.3711 14.5804C12.4652 14.5508 12.5624 14.522 12.6505 14.4917C12.7901 14.4451 12.7901 14.4436 12.5982 14.4124C12.4763 14.3916 12.3453 14.3731 12.2204 14.3539C12.0714 14.3607 11.9193 14.3684 11.7702 14.3745C11.5816 14.3823 11.5054 14.3682 11.4564 14.3187C11.4135 14.2753 11.465 14.2375 11.611 14.2276C11.76 14.2177 11.9 14.2109 11.9758 14.1714C12.0486 14.1336 12.1763 14.1184 12.3345 14.1145C12.4349 14.1117 12.5353 14.1059 12.6357 14.1008C12.7665 14.094 12.8362 14.0546 12.8085 14.0112C12.7931 13.9829 12.7625 13.9594 12.6438 13.9538C12.1172 13.9297 12.1111 13.9305 11.849 13.8798C11.8247 13.8753 11.8063 13.8616 11.8154 13.8547C11.8306 13.8431 11.8639 13.8261 11.9004 13.8237C12.2503 13.8051 12.6001 13.788 12.9499 13.7748C13.0655 13.7704 13.1507 13.7646 13.1901 13.7361C13.2446 13.6968 13.22 13.6609 13.1133 13.6347C13.0798 13.6264 13.0249 13.616 12.9884 13.6169C12.5868 13.6327 12.1883 13.6523 11.7868 13.6681C11.7503 13.6698 11.6833 13.6572 11.668 13.6473C11.6374 13.6291 11.6829 13.6044 11.7893 13.5954C11.9292 13.5832 12.0722 13.5818 12.1663 13.543C12.2968 13.488 12.4577 13.4375 12.6034 13.3847C12.6277 13.3754 12.6672 13.3576 12.658 13.3561C12.5818 13.3397 12.4935 13.3271 12.4143 13.3114C12.2802 13.2853 12.2799 13.2478 12.3101 13.2117C12.3343 13.1825 12.4255 13.1706 12.5381 13.17C12.5867 13.1698 12.6476 13.1695 12.6871 13.1624C12.7905 13.145 12.8238 13.1234 12.772 13.1076C12.7415 13.0986 12.6866 13.0859 12.6501 13.0876C11.9991 13.1161 11.345 13.1439 10.6971 13.1785C10.5054 13.1887 10.417 13.16 10.3013 13.14C10.2129 13.1243 10.1307 13.1186 10.0212 13.1307C9.91781 13.1419 9.81739 13.1363 9.75332 13.1113C9.70145 13.0909 9.7926 13.0729 10.0389 13.0518C10.0846 13.0477 10.1363 13.0451 10.1697 13.0373C10.5221 12.9529 10.5221 12.9521 10.7654 12.9402C11.0027 12.9291 11.0028 12.9283 11.1272 12.8833C11.1849 12.8623 11.2486 12.8414 11.3033 12.8197C11.3245 12.8111 11.361 12.7956 11.3487 12.7911C11.2816 12.7677 11.1903 12.7628 11.0838 12.7687C10.8466 12.7829 10.5666 12.7736 10.4423 12.8469C10.3938 12.8747 10.3178 12.8828 10.2083 12.8879C9.10702 12.9378 8.00577 12.9908 6.90147 13.0392C6.72199 13.047 6.64007 13.0757 6.57029 13.1075C6.50961 13.1338 6.4427 13.1418 6.3271 13.1469C6.2115 13.1521 6.12018 13.1549 6.05307 13.13C6.01341 13.1149 6.04674 13.0933 6.13788 13.0714C6.26852 13.0401 6.24391 13.002 6.20107 12.9662C6.17048 12.9427 6.07604 12.9263 5.97563 12.9283C5.82655 12.9321 5.68362 12.9413 5.55866 12.9113C5.48551 12.8941 5.39412 12.8823 5.31186 12.8674C5.15341 12.8368 4.99496 12.8055 4.77296 12.8273C4.62076 12.8204 4.51408 12.7934 4.39221 12.7725C4.1881 12.7384 4.16981 12.7331 4.31561 12.6949C4.47965 12.652 4.35145 12.5975 4.44246 12.5557C4.53953 12.5109 4.6732 12.4712 4.7916 12.4293C4.82195 12.4184 4.84929 12.4083 4.87964 12.3974C4.80955 12.3825 4.74553 12.3637 4.6633 12.3534C4.55671 12.3401 4.50182 12.3236 4.50758 12.2761C4.48623 12.2693 4.49542 12.2869 4.51979 12.2914C4.54721 12.2958 4.61418 12.2917 4.64762 12.2861C4.73272 12.2712 4.77515 12.2518 4.75374 12.2359C4.74151 12.2275 4.68367 12.2171 4.64715 12.2173C4.58021 12.2176 4.52251 12.2347 4.50454 12.2761C4.16394 12.3092 3.81101 12.3263 3.45811 12.3403C3.4216 12.342 3.37588 12.327 3.33323 12.3195C3.19308 12.2942 3.19307 12.295 2.78222 12.2894C2.73961 12.2888 2.68176 12.2784 2.66038 12.2678C2.57182 12.2216 2.57454 12.1703 2.53161 12.1208C2.61051 12.0882 2.68935 12.0565 2.7713 12.0247C2.93518 11.9603 3.14786 11.9034 3.27519 11.8331C3.24755 11.7958 3.21078 11.7585 3.34446 11.7272C3.72457 11.687 3.72155 11.687 3.82476 11.6498C4.11922 11.5442 4.41062 11.4379 4.71726 11.3339C4.79924 11.3067 4.79915 11.2921 4.65302 11.2814C4.60735 11.2786 4.55859 11.278 4.50992 11.2798C4.35781 11.2859 4.20576 11.3005 4.05663 11.2982C3.90751 11.2966 3.79774 11.2635 3.67588 11.2434C3.55098 11.2226 3.42607 11.2011 3.30116 11.1795C3.15816 11.1825 3.01532 11.2047 2.87207 11.171C2.76234 11.1447 2.62529 11.1263 2.50038 11.1047C2.59432 11.0461 2.77053 11.0008 2.90712 10.9489C3.03156 10.9016 3.03454 10.9023 3.36902 10.8647C3.52714 10.8471 3.58133 10.7603 3.44727 10.7357C3.28579 10.7059 3.11523 10.6785 2.95072 10.6502C2.80771 10.6532 2.66182 10.6746 2.52466 10.6409C2.41798 10.6154 2.29612 10.5984 2.1197 10.6093C1.8216 10.6276 1.51738 10.6376 1.21622 10.6528C1.11279 10.658 1.00015 10.6555 0.95433 10.6297C0.923777 10.6115 1.01186 10.5858 1.11224 10.5799C1.26433 10.5715 1.40119 10.5616 1.477 10.523C1.54977 10.4844 1.68357 10.4722 1.84177 10.466C1.88436 10.4643 1.93302 10.4549 1.95426 10.4456C2.0635 10.4006 2.18497 10.3618 2.41929 10.3621C2.51656 10.3463 2.56813 10.3269 2.53757 10.3087C2.51925 10.2989 2.45529 10.2862 2.41879 10.2879C2.16627 10.2968 1.91377 10.3058 1.66739 10.3208C1.5518 10.3275 1.46351 10.3294 1.39033 10.3069C1.3385 10.2918 1.36574 10.271 1.46296 10.2483C1.54804 10.2288 1.57226 10.2065 1.566 10.1805C1.55037 10.1201 1.45895 10.103 1.16685 10.1083C0.956911 10.1124 0.905111 10.1027 0.859116 10.0509C0.846862 10.0387 0.816372 10.022 0.837616 10.0135C0.96811 9.96081 1.05288 9.89611 1.2992 9.87039C1.39651 9.86072 1.49993 9.86019 1.56065 9.83999C1.62137 9.81979 1.67602 9.79656 1.73979 9.77711C1.81875 9.75375 1.87333 9.73206 1.83671 9.71771C1.77568 9.692 1.67832 9.69019 1.5658 9.69994C1.46847 9.70808 1.36502 9.70936 1.26464 9.71446C1.08516 9.72378 0.938999 9.70462 0.917471 9.67106C0.859056 9.58259 0.797585 9.4949 0.745256 9.4064C0.739098 9.39572 0.754178 9.38187 0.778459 9.37256C0.863444 9.33999 0.954561 9.30893 1.04259 9.27711C1.14581 9.24063 1.3102 9.24669 1.45013 9.2391C1.64785 9.22816 1.64779 9.22892 1.91203 9.15413C2.01529 9.12453 2.19491 9.13511 2.30124 9.10856C2.33465 9.09997 2.38629 9.08594 2.37711 9.07833C2.36487 9.06845 2.30399 9.0611 2.25832 9.05674C2.21569 9.05236 2.16395 9.05033 2.11833 9.05285C1.56466 9.07783 1.01407 9.10432 0.460398 9.12853C0.366093 9.13283 0.262517 9.11652 0.228884 9.09297C0.195262 9.07095 0.204181 9.04411 0.197924 9.01889C0.285957 8.98708 0.386139 8.9575 0.461985 8.92345C0.519625 8.89714 0.586504 8.88533 0.702125 8.88321C0.854256 8.88015 1.00331 8.87022 1.17367 8.86248C1.48938 8.74917 1.79895 8.63054 2.139 8.51711C2.27563 8.47127 2.2419 8.42553 2.26896 8.37718C2.29605 8.33266 2.49996 8.33853 2.6368 8.32484C2.74628 8.31357 2.78258 8.2889 2.73986 8.27228C2.71545 8.26245 2.66063 8.25125 2.61803 8.25146C2.51761 8.25197 2.41725 8.25936 2.31686 8.26369C2.21646 8.26802 2.10082 8.26632 2.01875 8.27974C1.93972 8.29238 1.88814 8.31865 1.83656 8.3411C1.77891 8.36587 1.70294 8.37468 1.58732 8.37679C1.43823 8.37907 1.28918 8.3867 1.14011 8.39281C0.975593 8.36379 0.804956 8.33558 0.646512 8.305C0.616042 8.29904 0.609804 8.28147 0.61277 8.26998C0.618654 8.24011 0.572898 8.22197 0.472383 8.20793C0.387098 8.19612 0.316986 8.17887 0.237767 8.16397C0.298486 8.143 0.365319 8.12277 0.413857 8.10033C0.520044 8.05312 0.65372 8.01878 0.884993 8.01915C0.97608 7.98885 1.04884 7.95175 1.16738 7.9305C1.27983 7.91004 1.47168 7.92896 1.55658 7.88338C1.59903 7.86098 1.66279 7.83541 1.74489 7.82581C1.87564 7.81062 2.04609 7.81742 2.12187 7.77419C2.16735 7.74947 2.23412 7.72694 2.32232 7.72037C2.42269 7.71298 2.52612 7.71094 2.59905 7.69603C2.63856 7.68818 2.68108 7.67572 2.68101 7.66501C2.68096 7.65812 2.62008 7.64771 2.57745 7.64334C2.53785 7.63818 2.48604 7.63461 2.4404 7.63637C2.28829 7.64173 2.13924 7.6509 1.98713 7.65625C1.94454 7.658 1.89583 7.65289 1.85015 7.64853C1.71618 7.63696 1.72519 7.62161 1.83151 7.59353C1.93783 7.56621 2.01371 7.53139 2.10174 7.49957C2.19908 7.49373 2.3208 7.49541 2.38764 7.48054C2.50007 7.45625 2.57893 7.42142 2.67002 7.39112C2.77041 7.38602 2.87385 7.38397 2.96812 7.37508C3.00766 7.37182 3.02582 7.35489 3.05922 7.34478C3.11995 7.32534 3.17154 7.29754 3.25364 7.28794C3.38743 7.2735 3.55178 7.27802 3.63062 7.23554C3.67609 7.21082 3.74588 7.18446 3.83107 7.1825C4.0684 7.17825 4.16853 7.13565 4.28998 7.09525C4.38107 7.06495 4.57593 7.07927 4.67614 7.04893C4.74296 7.02946 4.79151 7.00549 4.85833 6.98679C4.88567 6.979 4.94344 6.97489 4.98907 6.97236C5.23851 6.95963 5.49101 6.94994 5.74044 6.93644C5.77999 6.93395 5.81645 6.92229 5.84682 6.91296C5.91059 6.89274 5.94992 6.86499 6.02894 6.85159C6.10797 6.83818 6.22055 6.83762 6.31789 6.8333C6.63124 6.82025 6.65563 6.82318 6.7982 6.75742C6.91348 6.70404 7.19676 6.74011 7.2907 6.68148C7.34524 6.64754 7.44543 6.61949 7.62494 6.61476C7.87746 6.60814 8.12688 6.59234 8.37938 6.58112C8.60449 6.57081 8.60146 6.57082 8.84441 6.49843C8.95374 6.46575 9.11508 6.46953 9.25806 6.46269C9.41016 6.4558 9.55006 6.44592 9.62283 6.40729C9.69561 6.36943 9.8294 6.35651 9.98455 6.35037C10.1275 6.3443 10.2889 6.34732 10.4012 6.31614C10.6746 6.24131 10.6716 6.24055 10.8632 6.23194C11.1644 6.21818 11.4656 6.20442 11.7667 6.1899C11.9675 6.18047 12.1774 6.17789 12.366 6.1601C12.5028 6.14717 12.5634 6.10402 12.6514 6.07373C12.9009 6.061 13.1503 6.04826 13.3997 6.03629C13.7496 6.01923 14.1025 6.00368 14.4553 5.98737C14.6073 5.95753 14.6282 5.89314 14.8838 5.8888C15.0359 5.8865 15.185 5.8758 15.3371 5.86892C15.5896 5.85694 15.839 5.84191 16.0915 5.83528C16.2832 5.83049 16.3163 5.789 16.4166 5.76248C16.45 5.75313 16.4803 5.73997 16.5199 5.73747C16.9153 5.71406 17.323 5.70742 17.7093 5.6741C17.7488 5.67084 17.7852 5.65459 17.7943 5.64306C17.8003 5.63691 17.7485 5.6257 17.715 5.62051C17.6754 5.61459 17.6236 5.60873 17.581 5.61047C16.3247 5.66806 15.0683 5.72642 13.8119 5.784C13.6355 5.79254 13.6355 5.79177 13.207 5.8781C13.1705 5.88517 13.1279 5.89304 13.0823 5.89556C12.8815 5.90575 12.6777 5.91214 12.48 5.92462C12.3188 5.93461 12.1849 5.92609 12.0691 5.89913C11.9868 5.87965 11.9015 5.87396 11.798 5.87601C11.6824 5.87889 11.6064 5.88769 11.5396 5.90868C11.4516 5.93744 11.4062 5.97439 11.2206 5.98298C10.3658 6.02018 9.5109 6.06121 8.65911 6.1007C8.54037 6.09058 8.48245 6.07481 8.51275 6.05552C8.53093 6.04395 8.56736 6.02847 8.60386 6.02675C8.95369 6.00892 9.30656 5.99338 9.6564 5.97631C9.70507 5.97377 9.77201 5.97496 9.79935 5.96717C9.93301 5.93206 9.98137 5.87596 10.2339 5.87087C10.38 5.86783 10.529 5.85561 10.6689 5.84419C10.7084 5.84093 10.7448 5.82468 10.7539 5.81316C10.7569 5.80702 10.7081 5.79578 10.6715 5.79061C10.5375 5.76909 10.3825 5.79666 10.2485 5.78203C10.2029 5.77691 10.1389 5.76958 10.1297 5.76044C10.1235 5.75205 10.1752 5.73802 10.2116 5.72942C10.245 5.7216 10.2906 5.71448 10.3362 5.71196C10.7378 5.69234 11.1394 5.67195 11.541 5.65616C11.7053 5.64997 11.8207 5.63026 11.8935 5.5947C11.9481 5.5684 12.015 5.5543 12.1184 5.54995C12.8211 5.5181 13.5238 5.4832 14.2296 5.45363C14.4061 5.44662 14.4972 5.42091 14.57 5.38764C14.6277 5.36133 14.6945 5.35181 14.8071 5.34666C15.814 5.3018 16.8148 5.25239 17.8218 5.20906C18.0074 5.20124 18.0619 5.16806 18.1561 5.13927C18.1895 5.12916 18.2107 5.11681 18.2532 5.11047C18.2958 5.10414 18.3505 5.10462 18.4023 5.10283C19.2054 5.06589 20.0085 5.02665 20.8147 4.99199C21.0033 4.98415 21.0395 4.94571 21.1367 4.91843C21.1701 4.90985 21.2005 4.89593 21.24 4.89343C21.8424 4.86439 22.4447 4.83687 23.047 4.80859C23.4486 4.78973 23.8501 4.77088 24.2517 4.75279C24.4494 4.74414 24.4494 4.74337 24.7167 4.66933C24.7471 4.66076 24.7896 4.6506 24.8292 4.6481C25.9851 4.59332 27.1381 4.54085 28.2941 4.48682C28.3914 4.48251 28.4613 4.46455 28.5098 4.43829C28.5583 4.41203 28.6282 4.39407 28.7225 4.38977C29.626 4.34697 30.5295 4.30493 31.436 4.26441C31.6003 4.25746 31.7158 4.23851 31.7886 4.20371C31.8432 4.17742 31.91 4.16331 32.0135 4.15897C32.917 4.11769 33.8205 4.07412 34.7271 4.03436C34.9005 4.0266 34.9855 4.00016 35.0704 3.96912C35.1008 3.95825 35.125 3.94053 35.1616 3.93882C35.6118 3.91513 36.0589 3.89069 36.5122 3.87387C36.7008 3.8668 36.7645 3.83433 36.8404 3.80335C36.9011 3.77855 36.971 3.76979 37.0866 3.76614C37.3392 3.75799 37.5886 3.74373 37.835 3.72948C37.8715 3.727 37.917 3.70994 37.92 3.69921C37.9259 3.67928 37.8558 3.66586 37.7402 3.65956C36.5355 3.71535 35.3278 3.77116 34.1231 3.82696C33.9254 3.83637 33.9254 3.83638 33.6581 3.91042C33.6277 3.91899 33.5852 3.92915 33.5426 3.93166C32.3866 3.98568 31.2337 4.03893 30.0777 4.09295C29.9803 4.09727 29.9105 4.11522 29.862 4.14148C29.8135 4.16774 29.7435 4.18569 29.6492 4.18999C28.545 4.24146 27.4407 4.29369 26.3334 4.34288C26.1691 4.34983 26.0536 4.368 25.9808 4.40357C25.9262 4.42986 25.8594 4.44397 25.756 4.44832C24.7003 4.49648 23.6478 4.54692 22.5891 4.59357C22.4826 4.59793 22.4034 4.57614 22.4093 4.55544C22.4123 4.54472 22.4578 4.5269 22.4943 4.52518C23.0449 4.49716 23.5925 4.46839 24.1462 4.44647C24.3317 4.43942 24.3862 4.40547 24.4804 4.37668C24.5107 4.36658 24.535 4.35345 24.5745 4.3479C24.6171 4.34156 24.6719 4.34206 24.7236 4.34027C26.0286 4.27937 27.3337 4.21771 28.6418 4.15986C28.8305 4.15126 28.8667 4.11358 28.9639 4.08631C28.9973 4.07696 29.0276 4.06304 29.0672 4.06131C29.4687 4.04092 29.8703 4.02283 30.2718 4.00474C30.9745 3.97213 31.6772 3.93951 32.383 3.90689C32.5868 3.89744 32.5868 3.89744 32.848 3.8242C32.8784 3.81563 32.921 3.80471 32.9605 3.80298C34.8192 3.71634 36.678 3.6297 38.5367 3.54383C38.634 3.53952 38.7039 3.52157 38.7524 3.4953C38.8009 3.46981 38.8708 3.45109 38.9651 3.44603C41.4778 3.32932 43.9875 3.21262 46.5003 3.09744C46.6646 3.08973 46.7801 3.07308 46.8529 3.03675C46.9044 3.01047 46.9743 2.99635 47.0777 2.99124C49.8399 2.86332 52.6022 2.73542 55.3674 2.60672C57.2261 2.52085 59.0848 2.43345 60.9436 2.34911C61.1139 2.34137 61.205 2.31718 61.29 2.28538C61.3173 2.27453 61.3446 2.25679 61.3811 2.25508C61.7796 2.23394 62.1781 2.21434 62.5766 2.19474C62.7015 2.21477 62.8264 2.23404 62.9513 2.25407C63.0454 2.22452 63.1366 2.19422 63.2307 2.16467C63.833 2.13945 64.4262 2.10203 65.0347 2.08825C65.0742 2.08729 65.1169 2.10162 65.1596 2.10905C65.4429 2.15584 65.6041 2.1512 65.7832 2.08602C65.847 2.06274 65.9016 2.04181 65.999 2.03749C66.3001 2.0222 66.6044 2.01149 66.9025 1.99392C67.0637 1.98469 67.1976 1.99167 67.3134 2.01863C67.3957 2.03812 67.481 2.04611 67.5814 2.04101C68.1351 2.01527 68.6857 1.99031 69.2393 1.96303C69.2789 1.96131 69.3153 1.94811 69.3456 1.93877C69.4094 1.91856 69.464 1.89686 69.5248 1.8759C69.607 1.88849 69.6984 1.89798 69.7654 1.91448C69.8508 1.93394 69.9299 1.93354 70.0455 1.9276C72.254 1.8239 74.4656 1.72248 76.6742 1.61802C76.8628 1.60942 76.9452 1.64115 77.0731 1.65734C77.1157 1.66324 77.1583 1.67068 77.204 1.67198C77.2527 1.67326 77.3044 1.66842 77.3531 1.66588C79.011 1.58867 80.669 1.51222 82.3269 1.43501C82.5459 1.42472 82.5459 1.42472 82.8718 1.47053C82.9114 1.47645 82.9632 1.48308 83.0058 1.48057C83.7602 1.44693 84.5146 1.411 85.266 1.37661C85.3634 1.37229 85.4457 1.38412 85.534 1.40128C85.7077 1.43484 85.7198 1.43478 85.8473 1.38363C85.908 1.35961 85.9718 1.34474 86.0722 1.33735C86.1816 1.32915 86.27 1.33101 86.3553 1.34435C86.4771 1.36287 86.5656 1.39456 86.7511 1.38521C87.5542 1.3452 88.3604 1.3113 89.1604 1.27055C89.3429 1.26121 89.4405 1.28674 89.5624 1.30526C89.605 1.31193 89.6446 1.32244 89.6903 1.32451C89.7359 1.32658 89.7907 1.32094 89.8393 1.3184C90.8432 1.27203 91.8501 1.22641 92.851 1.177C93.0396 1.16763 93.122 1.20011 93.2499 1.2163C93.2925 1.22221 93.3413 1.23268 93.3808 1.23095C93.9831 1.2042 94.5886 1.1759 95.1909 1.14762C95.4069 1.13735 95.4068 1.13811 95.7358 1.18314C95.7754 1.18906 95.8272 1.19492 95.8698 1.19318C96.5725 1.16133 97.2783 1.1287 97.981 1.09609C98.197 1.08582 98.197 1.08582 98.8211 1.12247C98.8667 1.1253 98.9154 1.12965 98.9611 1.12789C99.7642 1.09095 100.57 1.05475 101.373 1.01551C101.535 1.00781 101.669 1.01326 101.784 1.04022C101.867 1.05971 101.952 1.0677 102.052 1.0626C102.956 1.02056 103.862 0.980038 104.763 0.935717C104.936 0.927193 105.049 0.943454 105.171 0.965032C105.21 0.972485 105.25 0.983 105.296 0.985831C105.341 0.988662 105.393 0.985339 105.442 0.982799C106.345 0.940758 107.252 0.901 108.152 0.855914C108.335 0.846579 108.432 0.872103 108.554 0.890621C108.597 0.897293 108.643 0.910837 108.679 0.909888C109.032 0.895105 109.385 0.881855 109.735 0.860966C109.923 0.849304 110.006 0.884082 110.134 0.900273C110.176 0.905415 110.225 0.916654 110.264 0.914924C111.019 0.881286 111.773 0.846119 112.525 0.810201C112.631 0.805074 112.71 0.811556 112.796 0.831022C112.908 0.857237 113.039 0.867291 113.204 0.858048C113.554 0.838688 113.906 0.824673 114.259 0.808359C114.466 0.798901 114.466 0.798904 115.099 0.835509C115.145 0.83834 115.194 0.842683 115.239 0.840923C115.842 0.813406 116.447 0.786641 117.046 0.756844C117.208 0.748381 117.342 0.754592 117.457 0.781556C117.54 0.801038 117.622 0.809046 117.725 0.803934C118.279 0.778193 118.83 0.752465 119.383 0.726723C119.584 0.717296 119.785 0.701744 119.986 0.700733C120.132 0.700764 120.238 0.736955 120.369 0.754661C120.406 0.759833 120.467 0.753413 120.515 0.751638C121.218 0.719025 121.924 0.68869 122.624 0.652266C122.806 0.642931 122.904 0.668455 123.025 0.686972C123.068 0.693645 123.114 0.707189 123.15 0.70624C123.403 0.696553 123.652 0.683819 123.905 0.672601C124.206 0.658842 124.51 0.648129 124.808 0.629795C125.052 0.614797 125.143 0.680906 125.338 0.682222C125.487 0.683768 125.639 0.669997 125.788 0.663125C126.089 0.649367 126.391 0.634079 126.692 0.621851C126.798 0.61749 126.88 0.604828 126.914 0.577113C126.92 0.571726 126.868 0.560514 126.834 0.553796C126.429 0.477784 126.429 0.47778 126.022 0.496665C125.769 0.508648 125.52 0.520618 125.267 0.531071C125.224 0.532815 125.176 0.526939 125.133 0.522562C125.011 0.510167 125.023 0.494804 125.127 0.466737C125.23 0.43867 125.309 0.404607 125.397 0.372791C125.522 0.392058 125.644 0.411333 125.769 0.4306C125.869 0.426269 125.969 0.421179 126.07 0.416848C126.572 0.394428 127.074 0.371241 127.576 0.35035C127.612 0.348636 127.658 0.363713 127.7 0.37115C127.822 0.392728 127.932 0.411301 128.108 0.401996C128.559 0.37754 129.012 0.359191 129.462 0.337796C129.66 0.328384 129.66 0.328384 130.007 0.37408C130.047 0.379238 130.098 0.385099 130.141 0.383355C130.594 0.363475 131.045 0.342082 131.498 0.321437C131.595 0.317121 131.69 0.326593 131.76 0.348431C131.787 0.357475 131.781 0.372807 131.898 0.497714C132.257 0.597676 132.504 0.585729 132.753 0.575292C132.86 0.57093 132.954 0.566626 133.024 0.55097C133.06 0.54237 133.106 0.529895 133.106 0.519948C133.106 0.512296 133.039 0.500388 132.996 0.499072C132.695 0.485284 132.409 0.518865 132.114 0.527236C131.977 0.530986 131.858 0.504801 131.834 0.461308C131.827 0.449096 131.818 0.436135 131.809 0.423938C131.8 0.411741 131.794 0.398764 131.784 0.386567C131.666 0.383339 131.596 0.397462 131.544 0.423738C131.502 0.445377 131.441 0.470169 131.359 0.48206C131.277 0.494716 131.164 0.492991 131.064 0.497322C130.967 0.501638 130.86 0.51212 130.769 0.507223C130.677 0.501561 130.604 0.479734 130.519 0.46639C130.479 0.459702 130.431 0.450004 130.391 0.451733C130.041 0.466501 129.694 0.48125 129.348 0.499829C129.165 0.509929 129.074 0.478256 128.958 0.458943C128.866 0.444099 128.775 0.448379 128.76 0.483654C128.721 0.568022 128.861 0.602514 129.172 0.584884C129.427 0.569825 129.658 0.566373 129.86 0.617395C129.887 0.624144 129.951 0.626882 129.991 0.625153C130.24 0.614715 130.486 0.601997 130.736 0.591559C130.781 0.589799 130.83 0.59261 130.873 0.595456C131.494 0.633653 131.494 0.634422 131.704 0.624184C131.804 0.619088 131.901 0.614772 131.892 0.498511C132.082 0.372822 132.387 0.362876 132.682 0.343027C132.873 0.330585 132.956 0.363841 133.081 0.380812C133.123 0.386719 133.169 0.39873 133.209 0.397001C133.863 0.368459 134.514 0.338398 135.165 0.30681C135.274 0.301668 135.353 0.305862 135.439 0.325328C135.548 0.350028 135.67 0.365488 135.843 0.355433C136.19 0.335323 136.543 0.322073 136.896 0.304993C137.076 0.296438 137.076 0.296431 137.438 0.34205C137.478 0.347207 137.529 0.353069 137.572 0.351324C137.925 0.33654 138.275 0.318716 138.625 0.303182C138.722 0.298866 138.81 0.309134 138.886 0.329411C138.963 0.349688 139.054 0.35994 139.148 0.35564C139.501 0.340091 139.851 0.323032 140.201 0.307498C140.243 0.305753 140.295 0.310849 140.335 0.316006C140.706 0.36158 140.706 0.361572 140.877 0.353063C141.126 0.34033 141.382 0.333694 141.628 0.31715C141.868 0.300637 141.993 0.344386 142.158 0.368045C142.608 0.348181 143.061 0.331365 143.509 0.30769C143.691 0.297589 143.789 0.322348 143.91 0.34163C143.953 0.348302 143.996 0.362628 144.035 0.361664C144.187 0.357838 144.337 0.348672 144.486 0.3418C144.635 0.334929 144.787 0.328043 144.936 0.321171C145.106 0.342504 145.219 0.393969 145.463 0.375145C145.609 0.363698 145.764 0.360622 145.913 0.35375C146.062 0.346879 146.214 0.339993 146.363 0.333121C146.464 0.32879 146.567 0.325971 146.664 0.318594C146.844 0.306213 146.932 0.343268 147.06 0.359459C147.103 0.3646 147.152 0.373532 147.191 0.371802C147.492 0.359574 147.796 0.348862 148.092 0.329778C148.32 0.314857 148.475 0.337035 148.637 0.368361C148.67 0.375079 148.728 0.378614 148.77 0.376869C149.123 0.362085 149.473 0.344252 149.823 0.328718C149.917 0.324418 150.009 0.336201 150.085 0.355712C150.164 0.375974 150.252 0.385485 150.35 0.38117C150.7 0.365636 151.053 0.348552 151.402 0.333018C151.445 0.331273 151.497 0.337136 151.536 0.343058C151.877 0.388785 151.877 0.389551 152.078 0.379358C152.127 0.376818 152.179 0.375021 152.227 0.372481C152.477 0.360513 152.735 0.355391 152.979 0.335802C153.259 0.313734 153.463 0.338726 153.661 0.381346C153.91 0.370908 154.166 0.364265 154.409 0.347737C154.591 0.335341 154.689 0.363926 154.811 0.382443C154.854 0.389115 154.899 0.402659 154.936 0.400945C155.289 0.386161 155.642 0.372912 155.988 0.352037C156.177 0.340376 156.259 0.374389 156.387 0.391345C156.43 0.397252 156.476 0.407741 156.515 0.406011C156.716 0.39888 156.917 0.388682 157.118 0.379255C157.352 0.368129 157.352 0.368894 157.662 0.414008C157.809 0.435464 157.955 0.417129 158.098 0.411053C158.25 0.404166 158.393 0.398857 158.515 0.429617C158.591 0.449129 158.682 0.460913 158.777 0.457378C158.977 0.449481 159.181 0.441572 159.379 0.429099C159.537 0.419121 159.674 0.42455 159.79 0.45228C159.872 0.471761 159.957 0.481286 160.058 0.47619C160.508 0.45556 160.961 0.434142 161.411 0.414278C161.451 0.412548 161.506 0.419162 161.542 0.425865C161.628 0.43921 161.71 0.454096 161.792 0.468987C161.99 0.461105 162.194 0.457027 162.388 0.445334C162.595 0.433581 162.784 0.428805 162.946 0.470078C162.979 0.479092 163.028 0.491848 163.067 0.490884C163.219 0.487058 163.369 0.478658 163.518 0.471787C163.667 0.464915 163.819 0.458029 163.968 0.451157C164.141 0.469414 164.251 0.523955 164.495 0.505131C164.641 0.493684 164.796 0.490608 164.945 0.483736C165.094 0.476865 165.246 0.469213 165.395 0.463107C165.444 0.461332 165.499 0.457228 165.541 0.460074C165.587 0.462906 165.626 0.473421 165.666 0.480874C165.788 0.502452 165.901 0.524078 166.074 0.510198C166.22 0.49875 166.375 0.495673 166.524 0.488037C166.728 0.478594 166.728 0.478596 167.066 0.525102C167.203 0.544308 167.358 0.517513 167.489 0.533688C167.578 0.544722 167.654 0.563465 167.739 0.576044C167.776 0.581217 167.833 0.583218 167.876 0.581473C168.077 0.573576 168.281 0.565667 168.478 0.553195C168.64 0.543201 168.774 0.551709 168.886 0.578689C168.969 0.59817 169.051 0.606178 169.154 0.601067C169.656 0.577116 170.158 0.556219 170.657 0.529988C170.827 0.520714 170.964 0.533037 171.059 0.560109C171.22 0.606738 171.448 0.549733 171.616 0.58715C171.72 0.61035 171.823 0.637378 172.012 0.624951C172.359 0.603311 172.711 0.590817 173.061 0.575283C173.186 0.595315 173.311 0.615352 173.439 0.635369C173.64 0.625942 173.841 0.616509 174.041 0.607847C174.19 0.600976 174.343 0.593324 174.492 0.587218C174.54 0.585443 174.592 0.582121 174.638 0.585717C174.683 0.589314 174.72 0.599079 174.763 0.606517C174.973 0.642954 174.973 0.643723 175.32 0.626675C175.469 0.619038 175.612 0.613727 175.737 0.643707C175.852 0.671436 175.989 0.676101 176.148 0.666888C176.446 0.650084 176.747 0.637091 177.051 0.624848C177.145 0.620547 177.234 0.633112 177.313 0.652609C177.432 0.683384 177.578 0.679589 177.727 0.670422C177.925 0.658714 178.119 0.647025 178.287 0.689033C178.32 0.698046 178.372 0.710787 178.409 0.709838C178.658 0.702461 178.911 0.696603 179.154 0.68084C179.398 0.665077 179.516 0.711919 179.684 0.734033C179.933 0.72283 180.186 0.711611 180.435 0.700409C180.484 0.697868 180.542 0.690695 180.584 0.694306C180.764 0.709472 180.868 0.766338 181.114 0.747499C181.257 0.736833 181.412 0.732995 181.562 0.729949C181.601 0.728985 181.653 0.741726 181.68 0.751536C181.696 0.756815 181.68 0.771429 181.662 0.779173C181.608 0.800873 181.541 0.821111 181.492 0.843546C181.486 0.846637 181.544 0.860114 181.578 0.866067C181.66 0.879427 181.754 0.876662 181.864 0.86999C181.958 0.864159 182.055 0.874381 182.123 0.896999C182.15 0.906044 182.141 0.921392 182.083 0.972185C182.084 1.00968 182.148 0.992519 182.169 0.967926C182.202 0.93256 182.138 0.921405 182.016 0.941146C181.931 0.955348 181.889 0.975459 181.91 0.99142C181.922 0.999776 181.98 1.0102 182.083 0.972185C182.351 0.924927 182.552 0.915503 182.753 0.906076C182.804 0.90352 182.865 0.895557 182.902 0.899964C183.033 0.91767 183.154 0.939252 183.282 0.959269C183.428 0.953943 183.565 0.941771 183.708 0.970894C183.91 1.01197 183.919 1.0081 184.113 0.998701C184.214 0.993604 184.314 0.98928 184.415 0.984949C184.515 0.980618 184.594 0.991694 184.683 1.00885C184.862 1.04391 184.878 1.04383 184.996 0.994261C185.066 0.964067 185.114 0.953878 185.203 0.967207C185.495 1.01241 185.498 1.01546 185.748 1.00043C185.954 0.987909 186.149 0.983869 186.302 1.02672C186.405 1.05681 186.439 1.04975 186.521 1.0172C186.739 0.931164 186.839 0.932186 187.251 0.991334C187.443 1.01945 187.64 0.987082 187.835 0.982277C187.999 0.978389 188.115 0.996168 188.127 1.04431C188.137 1.07411 188.164 1.0954 188.274 1.1048C188.317 1.10841 188.368 1.1135 188.411 1.11176C188.663 1.1013 188.913 1.08934 189.165 1.07735C189.293 1.07135 189.363 1.03504 189.338 0.987726C189.31 0.937362 189.359 0.918746 189.542 0.903289C189.651 0.894321 189.739 0.895414 189.828 0.908743C189.925 0.923557 189.898 0.937467 189.813 0.965442C189.609 1.0338 189.634 1.07499 189.896 1.12035C189.987 1.13596 190.06 1.15014 190.082 1.17375C190.094 1.18593 190.082 1.20206 190.11 1.21111C190.259 1.26162 190.466 1.29349 190.698 1.31681C190.92 1.29503 191.072 1.3287 191.243 1.35539C191.377 1.37614 191.535 1.35698 191.678 1.34861C191.839 1.33938 191.973 1.34483 192.089 1.37256C192.171 1.39204 192.256 1.40079 192.357 1.39646C192.557 1.38703 192.761 1.38065 192.959 1.36741C193.129 1.35584 193.257 1.37051 193.364 1.39599C193.498 1.42821 193.647 1.40527 193.787 1.40916C193.976 1.41356 194.07 1.48119 194.317 1.46158C194.463 1.45014 194.615 1.44555 194.767 1.44172C194.807 1.44076 194.855 1.45352 194.889 1.46254C195.05 1.50381 195.239 1.50056 195.446 1.48728C195.589 1.47814 195.729 1.46979 195.869 1.49816C196.101 1.54597 196.356 1.58754 196.6 1.63146C196.634 1.66649 196.61 1.70792 196.783 1.72771C196.875 1.73796 196.96 1.75361 197.03 1.77086C197.116 1.79109 197.195 1.79605 197.304 1.79014C197.502 1.77843 197.709 1.77509 197.904 1.76034C198.083 1.74719 198.196 1.77188 198.305 1.79505C198.394 1.81374 198.476 1.8225 198.582 1.80819C198.692 1.79463 198.771 1.80265 198.859 1.82286C198.984 1.85055 198.994 1.84745 199.407 1.85378C199.45 1.85433 199.502 1.86554 199.526 1.87537C199.538 1.88066 199.511 1.89611 199.49 1.90387C199.463 1.91319 199.42 1.92411 199.38 1.92661C198.93 1.94877 198.477 1.96865 198.027 1.99081C197.981 1.99333 197.933 1.99894 197.899 2.00676C197.863 2.01536 197.817 2.02706 197.817 2.03777C197.817 2.04543 197.878 2.0543 197.921 2.05945C198.055 2.07637 198.213 2.0488 198.344 2.06803C198.432 2.0806 198.505 2.09859 198.594 2.11039C198.63 2.11556 198.688 2.11451 198.734 2.11275C198.886 2.10663 199.035 2.09822 199.187 2.09287C199.229 2.09189 199.278 2.0993 199.318 2.10522C199.61 2.14966 199.61 2.14966 199.863 2.13844C199.963 2.13411 200.07 2.1221 200.164 2.12621C200.255 2.13035 200.335 2.15061 200.417 2.1632C200.587 2.18989 200.749 2.21586 200.761 2.27548C200.768 2.29841 200.868 2.31779 200.969 2.31882C201.066 2.31986 201.169 2.31093 201.27 2.30583C201.507 2.29546 201.507 2.29546 201.815 2.34059C201.9 2.35317 201.991 2.35423 202.101 2.34603C202.143 2.34276 202.195 2.34556 202.241 2.34916C202.39 2.35988 202.39 2.37442 202.293 2.40245C202.156 2.4437 202.168 2.44746 202.552 2.47997C202.698 2.49224 202.811 2.51616 202.933 2.53698C203.131 2.57041 203.128 2.57042 202.997 2.61623C202.967 2.62633 202.94 2.63718 202.909 2.64804C202.821 2.67833 202.751 2.71082 202.569 2.7148C202.368 2.71887 202.167 2.73213 201.966 2.74155C201.772 2.75095 201.72 2.76957 201.739 2.82151C201.761 2.88415 201.8 2.89083 202.15 2.88831C202.25 2.8878 202.339 2.89348 202.415 2.91376C202.379 2.93843 202.312 2.95789 202.214 2.96297C201.965 2.97571 201.713 2.98693 201.463 2.99813C201.262 3.00756 201.062 3.01698 200.861 3.02641C200.736 3.03239 200.657 3.07258 200.691 3.11679C200.709 3.14195 200.725 3.16713 200.74 3.1923C200.774 3.24263 200.838 3.25532 201.042 3.252C201.093 3.25098 201.142 3.24461 201.191 3.24589C201.389 3.25025 201.483 3.31329 201.721 3.29908C201.918 3.28738 202.125 3.28404 202.32 3.26929C202.499 3.25614 202.6 3.28319 202.725 3.30322C202.768 3.3099 202.813 3.3242 202.85 3.32325C203.102 3.31356 203.355 3.30388 203.601 3.2881C203.717 3.2814 203.787 3.28564 203.878 3.30354C204.098 3.34682 204.104 3.34449 204.429 3.32908C204.667 3.31717 204.67 3.31869 204.974 3.36383C205.059 3.37641 205.151 3.37595 205.26 3.36928C205.403 3.36091 205.552 3.34792 205.701 3.35864C205.747 3.36147 205.805 3.37037 205.82 3.38024C205.829 3.38708 205.787 3.40413 205.75 3.40967C205.483 3.4508 205.169 3.4455 204.877 3.46303C204.786 3.46808 204.695 3.454 204.619 3.43373C204.539 3.41346 204.454 3.40548 204.351 3.40983C204.15 3.41925 203.946 3.42563 203.748 3.43887C203.578 3.45044 203.459 3.43344 203.34 3.41031C203.301 3.40286 203.255 3.38855 203.215 3.38951C202.765 3.40708 202.312 3.42467 201.865 3.44835C201.685 3.45843 201.582 3.43447 201.46 3.41442C201.417 3.40775 201.374 3.39342 201.335 3.39439C201.183 3.39821 201.034 3.40738 200.882 3.41427C200.328 3.44001 199.777 3.46573 199.224 3.48995C199.187 3.49166 199.141 3.47582 199.099 3.46915C199.017 3.45579 198.931 3.4432 198.846 3.43063C198.694 3.43751 198.545 3.44591 198.393 3.45127C198.283 3.45488 198.186 3.46609 198.171 3.49524C198.162 3.51442 198.262 3.53151 198.369 3.52944C198.472 3.52739 198.576 3.51769 198.661 3.52721C199.084 3.57405 199.084 3.57482 199.349 3.56354C199.58 3.55319 199.556 3.54566 199.76 3.58672C199.848 3.60464 199.927 3.61496 200.028 3.60986C200.277 3.59789 200.53 3.58591 200.782 3.57546C200.822 3.57373 200.874 3.58112 200.913 3.58704C201.212 3.63145 201.212 3.63298 201.458 3.62026C201.781 3.60487 201.793 3.60098 202.009 3.64657C202.158 3.67796 202.295 3.65508 202.438 3.65283C202.603 3.68184 202.782 3.70773 202.932 3.74064C203.109 3.77954 203.294 3.77172 203.495 3.75923C203.644 3.75006 203.79 3.74627 203.912 3.77703C204.028 3.80552 204.168 3.80788 204.326 3.79944C204.469 3.79183 204.615 3.77655 204.764 3.79264C204.804 3.79703 204.865 3.8082 204.862 3.81511C204.859 3.82583 204.819 3.84134 204.78 3.84613C204.5 3.87891 204.193 3.87969 203.897 3.89571C203.858 3.8982 203.806 3.89005 203.767 3.88412C203.681 3.87078 203.599 3.85513 203.517 3.841C203.368 3.84634 203.216 3.84863 203.07 3.85855C202.957 3.866 202.872 3.86567 202.789 3.84772C202.713 3.83127 202.631 3.81102 202.54 3.80612C202.448 3.80123 202.342 3.81324 202.242 3.81834C202.141 3.82343 202.026 3.82172 201.947 3.83436C201.867 3.847 201.819 3.87403 201.767 3.89571C201.71 3.91972 201.631 3.92778 201.515 3.93066C201.409 3.93349 201.323 3.93085 201.244 3.90982C201.211 3.90081 201.165 3.89415 201.119 3.88826C201.076 3.88312 201.028 3.87494 200.988 3.87667C200.535 3.89655 200.085 3.91795 199.631 3.9386C199.406 3.94891 199.409 3.94889 198.94 3.9061C198.898 3.90249 198.846 3.8974 198.803 3.89914C198.551 3.9096 198.302 3.92157 198.049 3.93355C197.793 3.94555 197.797 3.944 197.361 3.89798C197.282 3.8892 197.166 3.90202 197.072 3.90097C196.874 3.89814 196.776 3.83435 196.545 3.84776C196.347 3.85947 196.141 3.8628 195.943 3.87757C195.763 3.89072 195.66 3.86446 195.538 3.84441C195.495 3.83774 195.449 3.82266 195.413 3.82438C194.96 3.84349 194.509 3.86489 193.907 3.87022C193.758 3.87097 193.825 3.8867 193.922 3.89157C194.062 3.89928 194.108 3.88298 194.032 3.85276C193.977 3.83161 193.898 3.82128 193.834 3.82696C193.8 3.83019 193.758 3.84495 193.907 3.87022C194.065 3.8985 194.056 3.91461 194.084 3.92365C194.151 3.94551 194.245 3.95421 194.343 3.95066C194.495 3.94454 194.644 3.93614 194.796 3.93078C194.839 3.92904 194.89 3.93413 194.93 3.94006C195.265 3.98581 195.268 3.98886 195.624 3.96871C195.737 3.96279 195.819 3.96237 195.907 3.97647C196.029 3.99575 196.117 4.02897 196.303 4.01732C196.549 4.00154 196.802 3.99186 197.054 3.98217C197.094 3.98044 197.136 3.994 197.182 3.9999C197.307 4.01763 197.399 4.05161 197.584 4.03613C197.727 4.02394 197.882 4.02009 198.034 4.01703C198.074 4.01606 198.135 4.028 198.153 4.03786C198.19 4.05527 198.144 4.07617 198.041 4.09123C197.998 4.09756 197.941 4.09632 197.892 4.09886C197.691 4.10829 197.49 4.11847 197.29 4.12637C197.183 4.13073 197.083 4.14272 197.071 4.17109C197.062 4.19027 197.171 4.20655 197.275 4.2045C197.427 4.20144 197.579 4.19455 197.725 4.18387C197.984 4.16573 198.209 4.16919 198.419 4.21634C198.568 4.24926 198.559 4.23707 198.718 4.33574C198.758 4.3608 198.877 4.36249 198.98 4.36044C199.23 4.35536 199.345 4.36626 199.324 4.39009C199.297 4.4193 199.209 4.42892 199.096 4.43331C198.895 4.44044 198.695 4.45141 198.494 4.46083C198.445 4.46337 198.39 4.46824 198.345 4.46694C198.299 4.46564 198.256 4.45667 198.217 4.44998C198.132 4.43587 198.058 4.41405 197.967 4.40915C197.876 4.40425 197.769 4.41627 197.669 4.42136C197.569 4.42569 197.462 4.43771 197.371 4.43281C197.279 4.42791 197.203 4.40535 197.121 4.39199C197.081 4.3853 197.033 4.37482 196.993 4.37579C196.792 4.38292 196.591 4.39388 196.391 4.40254C196.144 4.41373 196.144 4.41373 195.846 4.36779C195.76 4.35445 195.672 4.35566 195.56 4.36235C195.316 4.37581 195.313 4.37353 194.869 4.33138C194.826 4.32701 194.774 4.32191 194.732 4.32442C194.278 4.3443 193.828 4.3657 193.378 4.38633C192.992 4.40434 192.992 4.40434 192.779 4.48193C192.621 4.53935 192.618 4.53936 192.774 4.5646C192.899 4.5854 193.011 4.6162 193.148 4.62699C193.276 4.63706 193.434 4.60183 193.574 4.63633C193.645 4.65357 193.736 4.67224 193.824 4.67486C193.964 4.67798 194.113 4.65504 194.247 4.68803C194.314 4.70453 194.415 4.72163 194.5 4.72197C194.649 4.72275 194.801 4.70973 194.95 4.70363C194.996 4.70187 195.048 4.70161 195.09 4.70522C195.136 4.70958 195.176 4.71857 195.215 4.72602C195.337 4.75142 195.468 4.763 195.626 4.7492C195.885 4.72647 196.116 4.73602 196.317 4.78398C196.345 4.79073 196.412 4.79117 196.454 4.78789C196.564 4.77969 196.658 4.77844 196.74 4.79257C196.774 4.79852 196.822 4.80899 196.816 4.8159C196.807 4.82743 196.771 4.84292 196.731 4.84694C196.446 4.8744 196.138 4.87901 195.843 4.89426C195.804 4.89599 195.755 4.88629 195.715 4.8796C195.63 4.86625 195.557 4.84367 195.466 4.83877C195.374 4.83388 195.268 4.84436 195.167 4.84869C195.067 4.85302 194.961 4.86504 194.869 4.8609C194.778 4.85601 194.693 4.8373 194.619 4.82084C194.534 4.80214 194.452 4.80026 194.339 4.80848C194.193 4.81916 194.041 4.82145 193.892 4.82756C193.81 4.81343 193.728 4.79777 193.642 4.78443C193.603 4.77774 193.554 4.76957 193.511 4.77055C193.311 4.77768 193.11 4.78787 192.909 4.7973C192.708 4.80673 192.708 4.80674 192.367 4.76101C192.328 4.75585 192.276 4.74999 192.233 4.75174C191.981 4.76219 191.731 4.77491 191.479 4.78537C191.381 4.78968 191.293 4.77941 191.214 4.75915C191.138 4.73887 191.046 4.72786 190.952 4.73216C190.55 4.75025 190.149 4.76757 189.747 4.78872C189.586 4.79719 189.449 4.79099 189.339 4.764C189.211 4.73327 189.068 4.74164 188.919 4.74851C188.582 4.76551 188.579 4.76476 188.362 4.72682C188.32 4.71938 188.277 4.70506 188.237 4.70602C187.888 4.71926 187.535 4.73175 187.188 4.75186C187.005 4.76272 186.908 4.73644 186.786 4.71715C186.743 4.71048 186.698 4.69617 186.661 4.69788C186.409 4.70757 186.156 4.7165 185.91 4.73304C185.663 4.74958 185.568 4.6789 185.383 4.6806C185.13 4.68263 184.881 4.70149 184.631 4.71346C184.431 4.72288 184.23 4.73231 184.029 4.74174C183.828 4.75116 183.628 4.75906 183.427 4.77001C183.32 4.77591 183.241 4.76942 183.153 4.75073C183.04 4.72605 182.906 4.70683 182.784 4.68449C182.598 4.65252 182.598 4.65252 182.373 4.66283C182.325 4.66537 182.273 4.66716 182.224 4.6697C181.856 4.68839 181.856 4.68686 181.387 4.64101C181.366 4.63882 181.311 4.64752 181.29 4.65375C181.226 4.67396 181.168 4.69567 181.111 4.71663C181.028 4.7048 180.928 4.69842 180.873 4.68109C180.718 4.63214 180.475 4.70146 180.316 4.65329C180.258 4.63521 180.158 4.61965 180.066 4.61552C179.972 4.6114 179.865 4.62265 179.768 4.62773C179.516 4.64048 179.516 4.63971 179.3 4.7089C179.191 4.74312 179.032 4.73779 178.889 4.74616C178.74 4.75533 178.597 4.76064 178.472 4.7299C178.36 4.70215 178.223 4.69596 178.062 4.70595C177.864 4.71842 177.66 4.72633 177.459 4.73423C177.417 4.73597 177.365 4.73241 177.322 4.72803C176.856 4.68523 176.856 4.68447 176.631 4.69555C176.531 4.70064 176.427 4.70269 176.33 4.71007C176.166 4.72314 176.041 4.70769 175.922 4.68381C175.883 4.67635 175.837 4.66205 175.797 4.66302C175.596 4.66785 175.399 4.67573 175.201 4.68361C175.049 4.68974 174.897 4.69356 174.751 4.70501C174.507 4.72383 174.388 4.67469 174.221 4.65257C173.971 4.66378 173.719 4.67193 173.469 4.68696C173.354 4.69367 173.278 4.69176 173.189 4.67384C173.077 4.65145 172.973 4.62595 172.791 4.63835C172.547 4.65488 172.292 4.66152 172.042 4.67196C171.875 4.64908 171.753 4.60148 171.512 4.62029C171.366 4.63174 171.211 4.63481 171.062 4.64168C170.861 4.65111 170.661 4.65978 170.46 4.66997C170.244 4.68024 170.247 4.67793 169.915 4.63445C169.723 4.60864 169.525 4.63947 169.331 4.64504C169.178 4.64963 169.103 4.68521 169.139 4.73017C169.176 4.77514 169.094 4.81075 168.954 4.81757C168.605 4.83387 168.252 4.85095 167.902 4.86571C167.859 4.86746 167.808 4.86236 167.768 4.85721C167.393 4.81088 167.393 4.81166 167.226 4.81938C166.977 4.83212 166.721 4.83952 166.475 4.8553C166.304 4.8661 166.179 4.85067 166.07 4.8252C165.984 4.80573 165.905 4.80154 165.796 4.80668C164.591 4.86401 163.386 4.91751 162.185 4.97636C162.005 4.98491 161.902 4.96325 161.78 4.9432C161.737 4.93653 161.698 4.92218 161.655 4.9224C161.554 4.9229 161.454 4.9303 161.354 4.93539C160.904 4.95602 160.453 4.98048 160 4.99653C159.808 5.00362 159.757 5.03908 159.675 5.06857C159.611 5.09108 159.538 5.10063 159.426 5.10425C159.316 5.10786 159.237 5.10444 159.152 5.08497C159.042 5.0595 158.917 5.04406 158.747 5.05563C158.549 5.06887 158.348 5.07524 158.144 5.08468C158.041 5.08903 157.962 5.1032 157.929 5.13091C157.923 5.13554 157.987 5.1467 158.023 5.1534C158.145 5.17574 158.261 5.20194 158.398 5.21732C158.538 5.23268 158.69 5.21355 158.836 5.20822C158.888 5.20643 158.936 5.2016 158.985 5.20212C159.031 5.20266 159.086 5.20621 159.119 5.21293C159.277 5.24656 159.445 5.26944 159.664 5.24768C159.853 5.25668 159.95 5.3197 160.191 5.30165C160.337 5.29097 160.489 5.28561 160.641 5.28102C160.681 5.28006 160.723 5.29362 160.766 5.30029C160.888 5.31881 160.985 5.34892 161.168 5.335C161.362 5.32024 161.569 5.31691 161.767 5.3052C161.877 5.29853 161.956 5.30349 162.041 5.32295C162.151 5.34765 162.276 5.36615 162.446 5.35305C162.592 5.3416 162.747 5.33852 162.896 5.33089C163.091 5.32149 163.091 5.32226 163.438 5.36795C163.478 5.37311 163.529 5.37897 163.572 5.37723C163.825 5.36678 164.074 5.35404 164.326 5.34359C164.424 5.33927 164.518 5.34875 164.585 5.3706C164.613 5.37964 164.604 5.395 164.613 5.40796C164.111 5.43115 163.609 5.45127 163.11 5.47903C162.922 5.48993 162.836 5.45898 162.711 5.44201C162.669 5.43611 162.623 5.42333 162.583 5.42506C162.231 5.43984 161.881 5.45537 161.531 5.47397C161.421 5.47987 161.339 5.47722 161.257 5.45545C161.047 5.39759 160.791 5.43101 160.554 5.44062C160.371 5.44766 160.314 5.47168 160.335 5.52207C160.363 5.58162 160.473 5.59943 160.753 5.58731C160.853 5.58298 160.953 5.57711 161.054 5.57355C161.151 5.57 161.239 5.5795 161.319 5.59976C161.395 5.62004 161.486 5.63029 161.581 5.62676C161.781 5.61886 161.985 5.61095 162.18 5.59849C162.341 5.5885 162.475 5.59548 162.588 5.62322C162.713 5.65397 162.859 5.64634 163.005 5.63872C163.346 5.6217 163.349 5.62246 163.562 5.65964C163.604 5.66708 163.647 5.68141 163.687 5.68044C164.037 5.66721 164.389 5.65548 164.733 5.63539C164.913 5.6253 165.016 5.64926 165.135 5.66856C165.178 5.67523 165.22 5.69032 165.26 5.6886C165.513 5.67891 165.765 5.66922 166.011 5.65344C166.127 5.64597 166.197 5.65021 166.291 5.6681C166.517 5.71211 166.523 5.71055 166.842 5.6944C166.94 5.68932 167.046 5.68037 167.138 5.68603C167.229 5.6917 167.302 5.71352 167.387 5.72687C167.427 5.73279 167.476 5.74096 167.518 5.73921C167.719 5.73208 167.92 5.72189 168.121 5.71246C168.309 5.7031 168.309 5.70387 168.663 5.74953C168.806 5.76871 168.955 5.75112 169.098 5.74428C169.253 5.73661 169.393 5.73591 169.512 5.76515C169.631 5.7944 169.774 5.79214 169.926 5.78526C170.069 5.77842 170.215 5.76085 170.361 5.78078C170.696 5.82654 170.696 5.82729 170.903 5.81707C171.204 5.80255 171.502 5.7888 171.806 5.7758C171.846 5.77407 171.897 5.78299 171.937 5.78892C172.022 5.80226 172.096 5.82484 172.187 5.82974C172.278 5.8354 172.385 5.82569 172.482 5.8206C172.795 5.80449 172.817 5.79903 173.027 5.84847C173.204 5.8889 173.422 5.82812 173.587 5.87473C173.682 5.90104 173.809 5.92182 173.986 5.90792C174.132 5.89648 174.284 5.89265 174.436 5.88576C174.676 5.87461 174.676 5.87538 174.981 5.91976C175.021 5.92568 175.072 5.93307 175.112 5.93134C175.313 5.9242 175.517 5.91783 175.711 5.90307C175.939 5.88586 176.086 5.9142 176.256 5.94166C176.39 5.96317 176.548 5.94401 176.691 5.93564C176.846 5.9272 176.986 5.92879 177.102 5.95805C177.224 5.98805 177.367 5.9835 177.519 5.97662C177.662 5.97054 177.808 5.9522 177.954 5.97289C178.268 6.01876 178.268 6.01876 178.496 6.00843C178.697 5.999 178.898 5.98881 179.099 5.98168C179.138 5.97995 179.187 5.98965 179.227 5.99634C179.312 6.00968 179.385 6.03228 179.476 6.03717C179.568 6.04207 179.674 6.03159 179.775 6.02726C179.875 6.02293 179.981 6.01091 180.073 6.01504C180.164 6.01917 180.249 6.03788 180.322 6.05434C180.408 6.07381 180.487 6.0757 180.602 6.06747C180.748 6.05679 180.901 6.05373 181.05 6.04762C181.132 6.06175 181.217 6.07585 181.296 6.09152C181.379 6.10794 181.467 6.10597 181.579 6.10005C181.954 6.0798 181.957 6.08208 182.27 6.12795C182.414 6.14865 182.563 6.1303 182.706 6.12423C182.858 6.11734 183.001 6.11356 183.12 6.14357C183.235 6.17207 183.378 6.17517 183.531 6.16522C183.628 6.15861 183.731 6.15427 183.832 6.15147C183.877 6.15048 183.932 6.15326 183.966 6.15921C184.127 6.19054 184.286 6.21882 184.508 6.19704C184.702 6.20219 184.8 6.26444 185.034 6.25102C185.232 6.23931 185.439 6.23597 185.634 6.22121C185.813 6.20807 185.941 6.22886 186.033 6.25518C186.197 6.30179 186.428 6.23636 186.593 6.2822C186.687 6.30851 186.809 6.32932 186.991 6.31693C187.192 6.30367 187.256 6.31942 187.314 6.36733C187.348 6.39471 187.342 6.41693 187.281 6.43866C187.221 6.46116 187.154 6.45767 187.056 6.43291C186.943 6.40517 186.81 6.40048 186.648 6.40741C186.49 6.41433 186.392 6.37504 186.261 6.36039C186.131 6.34498 185.976 6.37254 185.838 6.35257C185.516 6.30599 185.516 6.30599 185.297 6.31627C185.148 6.32314 184.992 6.32699 184.846 6.33843C184.673 6.35231 184.56 6.32916 184.441 6.30833C184.399 6.30089 184.356 6.28656 184.319 6.28751C183.97 6.30075 183.617 6.31324 183.27 6.33412C183.087 6.34498 182.99 6.31793 182.868 6.29941C182.825 6.29274 182.78 6.27919 182.743 6.28091C182.442 6.29314 182.144 6.30841 181.843 6.32293C181.785 6.34388 181.721 6.3641 181.667 6.38656C181.609 6.40981 181.53 6.42016 181.414 6.41997C181.223 6.42094 181.034 6.45402 180.842 6.41443C180.644 6.37411 180.629 6.37648 180.437 6.38739C180.194 6.40163 179.935 6.39987 179.707 6.43086C179.668 6.43641 179.625 6.45116 179.625 6.46187C179.622 6.46877 179.686 6.4784 179.726 6.48432C179.86 6.50202 180.015 6.47446 180.149 6.49291C180.237 6.50471 180.31 6.5227 180.399 6.53527C180.435 6.54044 180.49 6.5394 180.539 6.53839C180.59 6.53737 180.639 6.53177 180.688 6.53229C180.733 6.53283 180.782 6.53716 180.819 6.54387C180.986 6.5721 181.163 6.598 181.312 6.63168C181.459 6.66462 181.595 6.64097 181.741 6.63871C182.326 6.68933 182.326 6.69009 182.718 6.67128C182.816 6.66697 182.916 6.66187 183.017 6.66213C183.059 6.66192 183.099 6.67549 183.142 6.68293C183.263 6.70527 183.379 6.72535 183.549 6.71225C183.695 6.7008 183.851 6.69772 184 6.69009C184.2 6.68066 184.2 6.68066 184.542 6.72715C184.627 6.73897 184.718 6.73698 184.828 6.73031C184.922 6.72448 185.019 6.73547 185.086 6.75732C185.114 6.76636 185.105 6.78171 185.114 6.79468C184.813 6.80843 184.509 6.81838 184.217 6.83822C184.028 6.85064 183.943 6.81817 183.818 6.8012C183.775 6.79529 183.729 6.78251 183.69 6.78424C183.392 6.79722 183.094 6.81172 182.796 6.82852C182.759 6.83024 182.714 6.84807 182.711 6.8588C182.705 6.87872 182.781 6.89747 182.89 6.89615C183.036 6.89465 183.179 6.88092 183.31 6.91164C183.42 6.93863 183.557 6.95019 183.718 6.93714C183.816 6.92976 183.919 6.92924 184.017 6.92263C184.275 6.90296 184.509 6.90561 184.704 6.95666C184.854 6.96968 185 6.95594 185.143 6.94834C185.249 6.94245 185.352 6.93656 185.429 6.95072C185.59 6.98052 185.749 7.01033 185.971 6.98855C186.211 7.00877 186.394 7.05299 186.595 7.08871C186.69 7.10584 186.763 7.11542 186.872 7.10339C186.918 7.09857 186.972 7.09829 187.021 7.09575C187.122 7.09142 187.228 7.0794 187.319 7.08354C187.411 7.08843 187.487 7.11024 187.569 7.1236C187.609 7.13029 187.654 7.14154 187.694 7.14057C187.846 7.13598 187.995 7.12758 188.144 7.12071C188.293 7.1146 188.442 7.1085 188.591 7.10239C188.716 7.12166 188.844 7.14091 188.969 7.16018C189.17 7.15075 189.371 7.14132 189.568 7.13267C189.79 7.12237 189.79 7.12314 190.11 7.16897C190.253 7.18968 190.406 7.17514 190.542 7.1645C190.77 7.14729 190.923 7.1756 191.084 7.2054C191.118 7.21135 191.179 7.21487 191.218 7.21161C191.376 7.2001 191.513 7.20783 191.629 7.23556C191.711 7.25504 191.794 7.26381 191.894 7.25948C192.244 7.24318 192.594 7.22611 192.944 7.21135C192.986 7.2096 193.035 7.21624 193.075 7.22217C193.385 7.26728 193.388 7.26956 193.616 7.25617C193.82 7.24443 194.009 7.23889 194.17 7.28016C194.204 7.28918 194.256 7.30193 194.292 7.30098C194.542 7.29207 194.794 7.28238 195.041 7.26813C195.153 7.26145 195.232 7.26335 195.321 7.2805C195.433 7.30213 195.534 7.3284 195.72 7.31752C196.234 7.28662 196.237 7.29119 196.846 7.34093C196.888 7.34454 196.946 7.33813 196.995 7.33482C197.098 7.32665 197.174 7.33698 197.266 7.35412C197.47 7.39289 197.476 7.39056 197.671 7.38116C197.82 7.37353 197.975 7.37121 198.121 7.359C198.346 7.34104 198.495 7.37013 198.663 7.3976C198.797 7.41912 198.952 7.39997 199.095 7.39236C199.25 7.38393 199.39 7.38552 199.506 7.41401C199.585 7.43351 199.67 7.4438 199.771 7.43947C200.121 7.42394 200.47 7.40687 200.82 7.39133C200.863 7.38959 200.915 7.39545 200.954 7.40061C201.301 7.4463 201.301 7.4486 201.645 7.42927C201.755 7.42337 201.846 7.42138 201.928 7.43703C202.007 7.45194 202.093 7.46604 202.175 7.48017C202.324 7.47406 202.476 7.47177 202.622 7.46185C202.735 7.4544 202.814 7.45706 202.902 7.47269C203.018 7.49277 203.116 7.52823 203.298 7.50971C203.392 7.50082 203.502 7.50257 203.596 7.49445C203.709 7.48393 203.785 7.48967 203.873 7.50912C203.983 7.53229 204.096 7.55621 204.272 7.54307C204.467 7.52832 204.674 7.52499 204.871 7.51328C204.981 7.50661 205.057 7.51235 205.145 7.5318C205.255 7.5565 205.38 7.57194 205.55 7.56114C205.897 7.54026 205.9 7.54407 206.238 7.59057C206.323 7.60239 206.415 7.6004 206.524 7.59373C206.619 7.5879 206.716 7.59889 206.783 7.62074C206.847 7.6449 206.841 7.66023 206.847 7.67321ZM179.685 0.908495C179.585 0.912826 179.484 0.917922 179.338 0.852087C179.329 0.840655 179.335 0.826854 179.313 0.817014C179.265 0.796599 179.188 0.782444 179.097 0.780608C178.933 0.778373 178.735 0.80538 178.738 0.825259C178.741 0.842078 178.793 0.856353 178.894 0.869621C178.936 0.874763 178.97 0.883778 179.01 0.889701C179.125 0.906718 179.217 0.940697 179.384 0.922256C179.369 0.898612 179.353 0.874968 179.384 0.922256C179.369 0.95141 179.415 0.971841 179.524 0.979706C179.555 0.981849 179.6 0.980085 179.625 0.975372C179.719 0.958063 179.734 0.935036 179.664 0.874939C179.652 0.884948 179.661 0.902495 179.688 0.906948C179.716 0.911402 179.783 0.907244 179.816 0.901719C179.901 0.886752 179.944 0.867406 179.922 0.851445C179.91 0.843089 179.852 0.832668 179.816 0.832851C179.752 0.833173 179.694 0.850296 179.685 0.908495ZM204.35 9.65847C204.128 9.67413 203.873 9.67006 203.651 9.70102C203.611 9.70657 203.572 9.72054 203.569 9.73127C203.566 9.73817 203.627 9.74782 203.663 9.75299C203.745 9.76482 203.837 9.76053 203.943 9.75617C204.104 9.75 204.199 9.78472 204.324 9.80169C204.363 9.80685 204.415 9.81042 204.458 9.80867C204.704 9.79825 204.948 9.78709 205.194 9.77513C205.237 9.77262 205.282 9.76703 205.319 9.75996C205.44 9.73716 205.428 9.72269 205.309 9.70645C205.178 9.68874 205.075 9.65865 204.941 9.64479C204.749 9.62509 204.554 9.65362 204.35 9.65847ZM187.073 10.304C186.924 10.3109 186.778 10.3177 186.629 10.3246C186.58 10.3271 186.529 10.3281 186.483 10.3314C186.389 10.3373 186.319 10.3537 186.273 10.3792C186.344 10.3987 186.429 10.4098 186.523 10.407C186.672 10.4017 186.818 10.391 186.967 10.3879C187.129 10.3841 187.223 10.418 187.348 10.435C187.388 10.4401 187.436 10.4407 187.482 10.4412C187.707 10.4431 187.844 10.4026 187.801 10.347C187.77 10.3035 187.654 10.2781 187.514 10.2842C187.368 10.2903 187.219 10.2971 187.073 10.304ZM205.383 8.5223C205.42 8.50911 205.459 8.49973 205.477 8.48816C205.532 8.44886 205.51 8.41989 205.41 8.38979C205.288 8.35291 205.139 8.37891 205.002 8.38342C204.969 8.38436 204.932 8.40061 204.914 8.41065C204.902 8.41759 204.902 8.43214 204.92 8.43587C205.069 8.46573 205.228 8.49324 205.383 8.5223ZM178.971 6.39477C178.825 6.40163 178.676 6.40697 178.53 6.41612C178.493 6.4186 178.46 6.43331 178.438 6.44336C178.399 6.46192 178.442 6.48696 178.567 6.48863C178.71 6.49097 178.859 6.47721 179.008 6.47034C179.196 6.46174 179.309 6.43286 179.238 6.40872C179.171 6.38534 179.08 6.38121 178.971 6.39477ZM18.7827 5.5654C18.8801 5.56108 18.9805 5.55751 19.0778 5.55167C19.169 5.54585 19.239 5.52867 19.2844 5.50319C19.2082 5.48367 19.1229 5.47339 19.0286 5.47616C18.8796 5.4815 18.7335 5.48836 18.5875 5.49674C18.4963 5.5018 18.4082 5.51907 18.3871 5.5452C18.3659 5.5652 18.5698 5.57565 18.7827 5.5654ZM166.09 4.70649C166.13 4.71318 166.169 4.72675 166.209 4.72655C166.306 4.72606 166.407 4.72096 166.498 4.71285C166.538 4.70959 166.568 4.69567 166.586 4.68486C166.598 4.67792 166.595 4.66569 166.577 4.65966C166.488 4.62338 166.135 4.63816 166.078 4.68054C166.072 4.68822 166.087 4.69809 166.09 4.70649ZM156.461 0.564674C156.471 0.576871 156.474 0.589097 156.486 0.601279C156.511 0.624112 156.578 0.640612 156.675 0.6516C156.751 0.632088 156.79 0.610467 156.787 0.587527C156.784 0.5753 156.775 0.563095 156.763 0.550914C156.738 0.528081 156.671 0.511589 156.574 0.500602C156.498 0.519349 156.461 0.540954 156.461 0.564674ZM212.428 10.3096C212.4 10.3197 212.373 10.3298 212.343 10.3391C212.425 10.3609 212.501 10.3674 212.559 10.3548C212.595 10.347 212.617 10.3354 212.644 10.3253C212.562 10.3035 212.489 10.2978 212.428 10.3096ZM210.536 10.4232C210.575 10.4299 210.612 10.4389 210.655 10.4432C210.725 10.4505 210.788 10.4372 210.837 10.4094C210.797 10.4027 210.761 10.3937 210.718 10.3893C210.648 10.382 210.584 10.3954 210.536 10.4232ZM211.734 10.2771C211.713 10.2956 211.755 10.3107 211.868 10.3231C211.895 10.313 211.932 10.3037 211.95 10.2929C211.98 10.2751 211.928 10.2593 211.819 10.2476C211.788 10.2569 211.761 10.267 211.734 10.2771ZM205.305 9.48456C205.283 9.50303 205.326 9.51812 205.439 9.53056C205.466 9.52048 205.503 9.51111 205.521 9.50031C205.551 9.48255 205.499 9.46675 205.39 9.45506C205.359 9.46439 205.332 9.47448 205.305 9.48456ZM196.517 4.11419C196.489 4.12428 196.462 4.13436 196.432 4.1437C196.514 4.16548 196.59 4.17198 196.648 4.15944C196.684 4.15161 196.705 4.14002 196.733 4.12994C196.65 4.10816 196.577 4.10241 196.517 4.11419ZM188.114 1.28389C188.187 1.28888 188.248 1.27787 188.299 1.24929C188.26 1.24261 188.223 1.23361 188.18 1.22923C188.11 1.22193 188.047 1.23526 187.998 1.26305C188.038 1.27051 188.077 1.27719 188.114 1.28389ZM183.661 1.12647C183.634 1.13656 183.606 1.14664 183.576 1.15598C183.658 1.17775 183.734 1.18426 183.792 1.17172C183.828 1.16389 183.85 1.1523 183.877 1.14222C183.795 1.12044 183.722 1.11545 183.661 1.12647ZM153.467 0.578972C153.44 0.589057 153.413 0.599142 153.382 0.608477C153.465 0.630254 153.541 0.636756 153.598 0.624222C153.635 0.616387 153.656 0.604802 153.683 0.594716C153.601 0.57294 153.528 0.567953 153.467 0.578972ZM3.19151 7.56066C3.15191 7.55397 3.11234 7.54729 3.07577 7.53983C2.98767 7.56093 2.96042 7.58019 3.0092 7.59449C3.03969 7.60352 3.08534 7.60865 3.12494 7.61533C3.21609 7.59421 3.23726 7.57574 3.19151 7.56066Z" fill="#BF1E2D"/>
</svg>
